<?xml version="1.0" encoding="UTF-8" standalone="no"?>
<!-- Created with Inkscape (http://www.inkscape.org/) -->

<svg
   width="132.24342mm"
   height="22.523821mm"
   viewBox="0 0 132.24342 22.52382"
   version="1.1"
   id="svg1"
   xml:space="preserve"
   inkscape:version="1.4 (e7c3feb1, 2024-10-09)"
   sodipodi:docname="xperts-2025-logo.svg"
   xmlns:inkscape="http://www.inkscape.org/namespaces/inkscape"
   xmlns:sodipodi="http://sodipodi.sourceforge.net/DTD/sodipodi-0.dtd"
   xmlns="http://www.w3.org/2000/svg"
   xmlns:svg="http://www.w3.org/2000/svg"><sodipodi:namedview
     id="namedview1"
     pagecolor="#5a5a5a"
     bordercolor="#000000"
     borderopacity="0.25"
     inkscape:showpageshadow="2"
     inkscape:pageopacity="0.0"
     inkscape:pagecheckerboard="0"
     inkscape:deskcolor="#d1d1d1"
     inkscape:document-units="mm"
     showguides="true"
     inkscape:zoom="0.79273823"
     inkscape:cx="261.75097"
     inkscape:cy="-149.48188"
     inkscape:current-layer="g2" /><defs
     id="defs1">
	
	
</defs><g
     inkscape:label="Layer 1"
     inkscape:groupmode="layer"
     id="layer1"
     transform="translate(5.7910353,-200.36276)"><g
       id="g20"
       transform="translate(11.377083,82.814583)" /><g
       id="g2"
       transform="matrix(1.2013244,0,0,1.2013244,-104.44625,24.997773)"><g
         id="g23"
         transform="matrix(0.59594192,0,0,0.59594192,79.413852,75.953097)"
         style="fill:#ffffff;fill-opacity:0.6"><text
           xml:space="preserve"
           style="font-style:normal;font-variant:normal;font-weight:bold;font-stretch:normal;font-size:12.9952px;font-family:'Helvetica Neue';-inkscape-font-specification:'Helvetica Neue, Bold';font-variant-ligatures:normal;font-variant-caps:normal;font-variant-numeric:normal;font-variant-east-asian:normal;text-align:start;letter-spacing:1.12183px;word-spacing:0.116417px;writing-mode:lr-tb;direction:ltr;text-anchor:start;fill:#ffffff;fill-opacity:0.6;stroke-width:3.99899;stroke-opacity:0.835821"
           x="135.55702"
           y="127.80914"
           id="text16"><tspan
             sodipodi:role="line"
             id="tspan16"
             style="fill:#ffffff;fill-opacity:0.6;stroke-width:3.999"
             x="135.55702"
             y="127.80914">U</tspan></text><text
           xml:space="preserve"
           style="font-style:normal;font-variant:normal;font-weight:bold;font-stretch:normal;font-size:12.9952px;font-family:'Helvetica Neue';-inkscape-font-specification:'Helvetica Neue, Bold';font-variant-ligatures:normal;font-variant-caps:normal;font-variant-numeric:normal;font-variant-east-asian:normal;text-align:start;letter-spacing:1.12183px;word-spacing:0.116417px;writing-mode:lr-tb;direction:ltr;text-anchor:start;fill:#ffffff;fill-opacity:0.6;stroke-width:3.99899;stroke-opacity:0.835821"
           x="144.81744"
           y="127.80914"
           id="text17"><tspan
             sodipodi:role="line"
             id="tspan17"
             style="fill:#ffffff;fill-opacity:0.6;stroke-width:3.999"
             x="144.81744"
             y="127.80914">S</tspan></text><text
           xml:space="preserve"
           style="font-style:normal;font-variant:normal;font-weight:bold;font-stretch:normal;font-size:12.9952px;font-family:'Helvetica Neue';-inkscape-font-specification:'Helvetica Neue, Bold';font-variant-ligatures:normal;font-variant-caps:normal;font-variant-numeric:normal;font-variant-east-asian:normal;text-align:start;letter-spacing:1.12183px;word-spacing:0.116417px;writing-mode:lr-tb;direction:ltr;text-anchor:start;fill:#ffffff;fill-opacity:0.6;stroke-width:3.99899;stroke-opacity:0.835821"
           x="153.28412"
           y="127.80914"
           id="text18"><tspan
             sodipodi:role="line"
             id="tspan18"
             style="fill:#ffffff;fill-opacity:0.6;stroke-width:3.999"
             x="153.28412"
             y="127.80914">A</tspan></text></g><rect
         style="fill:#ffffff;fill-opacity:0.6;stroke-width:1.975;stroke-opacity:0.835821"
         id="rect21"
         width="0.17974119"
         height="6.7497911"
         x="152.69859"
         y="145.97638" /><path
         class="st1"
         d="m 144.77942,151.43675 c 0.0298,-0.0199 0.0596,-0.0397 0.0794,-0.0695 0.0199,-0.0298 0.0298,-0.0695 0.0298,-0.10924 0,-0.0397 -0.01,-0.0794 -0.0298,-0.10924 -0.0199,-0.0298 -0.0496,-0.0497 -0.0794,-0.0695 -0.0298,-0.0199 -0.0596,-0.0199 -0.0894,-0.0199 h -0.30786 v 0.63557 h 0.10924 v -0.22841 h 0.17876 l 0.11917,0.22841 h 0.1291 z m 0.4171,-0.29792 c -0.0298,-0.0794 -0.0795,-0.13903 -0.13903,-0.19862 -0.0596,-0.0596 -0.1291,-0.0993 -0.19862,-0.13903 -0.0794,-0.0298 -0.15889,-0.0496 -0.24827,-0.0496 -0.0894,0 -0.16882,0.0199 -0.24827,0.0496 -0.0794,0.0298 -0.13903,0.0795 -0.19861,0.13903 -0.0596,0.0596 -0.0993,0.1291 -0.13903,0.19862 -0.0298,0.0794 -0.0497,0.15889 -0.0497,0.24827 0,0.0894 0.0199,0.16882 0.0497,0.24827 0.0298,0.0794 0.0794,0.13903 0.13903,0.19861 0.0596,0.0596 0.1291,0.0993 0.19861,0.13903 0.0794,0.0298 0.15889,0.0497 0.24827,0.0497 0.0894,0 0.16882,-0.0199 0.24827,-0.0497 0.0795,-0.0298 0.13903,-0.0794 0.19862,-0.13903 0.0596,-0.0596 0.0993,-0.1291 0.13903,-0.19861 0.0298,-0.0795 0.0496,-0.1589 0.0496,-0.24827 0,-0.0894 -0.0199,-0.16883 -0.0496,-0.24827 z m -0.70509,0 h 0.15889 c 0.0298,0 0.0497,0.01 0.0794,0.0298 0.0199,0.0199 0.0397,0.0496 0.0397,0.0894 0,0.0397 -0.01,0.0695 -0.0397,0.0894 -0.0199,0.0199 -0.0496,0.0298 -0.0794,0.0298 h -0.15889 z m 0.58592,0.5164 c -0.0497,0.0794 -0.10924,0.14896 -0.18869,0.18868 -0.0794,0.0497 -0.16882,0.0695 -0.26813,0.0695 -0.0993,0 -0.18868,-0.0199 -0.26813,-0.0695 -0.0795,-0.0497 -0.14896,-0.10924 -0.18868,-0.18868 -0.0497,-0.0795 -0.0695,-0.16883 -0.0695,-0.26813 0,-0.0993 0.0199,-0.18869 0.0695,-0.26813 0.0496,-0.0795 0.10923,-0.14897 0.18868,-0.18869 0.0794,-0.0496 0.16882,-0.0695 0.26813,-0.0695 0.0993,0 0.18869,0.0199 0.26813,0.0695 0.0794,0.0497 0.14896,0.10924 0.18869,0.18869 0.0496,0.0794 0.0695,0.16882 0.0695,0.26813 0,0.0894 -0.0199,0.17875 -0.0695,0.26813 z m -19.83178,-3.82335 v -1.13211 h 1.29101 v 1.13211 4.16099 h -1.29101 z m -5.70026,-1.13211 h 4.99518 v 1.14204 h -2.34367 v 4.161 h -1.291 v -4.161 h -1.36051 z m 25.76045,0 v 1.14204 h -2.34367 v 4.161 h -1.291 v -4.161 h -1.36052 v -1.14204 z m -47.101708,0 h 5.600958 v 1.14204 h -4.309956 v 1.13211 h 3.674386 v 1.14204 h -3.674386 v 1.88685 h -1.291002 z m 36.177838,0 h 5.21367 v 1.14204 h -3.92266 v 0.94342 h 3.21757 v 1.14204 h -3.21757 v 0.94343 h 3.99217 v 1.14204 h -5.28318 z m -0.99307,1.49955 v 3.79355 h -1.291 v -3.79355 c 0,-0.19862 -0.1589,-0.35751 -0.35751,-0.35751 h -2.89979 v 4.161 h -1.291 v -5.30304 h 4.34968 c 0.81432,0 1.48962,0.67529 1.48962,1.49955 z m -15.8396,-1.49955 h -4.4192 v 5.2931 h 1.291 v -1.88684 h 2.90972 c 0.15889,0.01 0.27806,0.13903 0.27806,0.28799 v 1.59885 h 1.291 v -1.60878 c 0,-0.27806 -0.15889,-0.52633 -0.3873,-0.65543 0.27807,-0.2582 0.45682,-0.63557 0.45682,-1.04274 v -0.55612 c 0.01,-0.79446 -0.62564,-1.43003 -1.4201,-1.43003 z m 0.13903,1.97622 c 0,0.1589 -0.1291,0.288 -0.28799,0.288 h -2.96931 v -1.12218 h 2.96931 c 0.15889,0 0.28799,0.1291 0.28799,0.28799 z"
         id="path1-9"
         style="fill:#ffffff;fill-opacity:0.6;stroke-width:0.0993078" /><path
         class="st2"
         d="m 112.13694,148.66606 v 1.37045 0 h -2.14505 v -1.37045 0 z m -4.86608,3.32681 v 0 h 2.13512 v 0 -1.37044 h -2.13512 z m 4.86608,-4.14113 c 0,-0.63557 -0.5164,-1.15197 -1.15197,-1.15197 h -0.98315 v 1.37045 h 2.13512 z m -4.86608,-1.15197 v 1.37045 0 h 2.13512 v 0 -1.37045 0 z m -2.72104,1.96629 v 0 1.37045 0 h 2.13512 v -1.37045 0 z m 5.44207,3.32681 h 0.98315 c 0.63557,0 1.15197,-0.5164 1.15197,-1.15197 v -0.21847 h -2.13512 z m -5.44207,-1.15197 c 0,0.63557 0.5164,1.15197 1.15197,1.15197 h 0.98315 v -1.37044 h -2.13512 z m 0,-2.98916 v 0.21848 h 2.13512 v -1.37045 h -0.98315 c -0.63557,0 -1.15197,0.5164 -1.15197,1.15197 z"
         id="path2-9"
         style="stroke-width:0.0993078" /></g><g
       id="g4"
       transform="translate(-48.72878,50.397574)"><g
         id="g1"
         transform="matrix(0.6894856,0,0,0.6894856,-24.867442,52.72343)"><g
           id="g19"
           transform="matrix(0.59594192,0,0,0.59594192,74.590993,78.518993)"><path
             style="fill:#c83c2b;fill-opacity:1"
             d="m 44.037837,142.22406 c -2.075688,-3.04042 -3.854645,-5.61137 -3.924939,-5.73264 l -0.127808,-0.22049 h 3.07113 3.071131 l 0.58599,0.39688 0.58599,0.39687 3.50416,5.02709 c 1.210088,1.92468 2.730101,3.63967 3.85511,5.61863 h -3.41182 -3.463438 z"
             id="path15"
             sodipodi:nodetypes="sscccccscccs" /><path
             style="fill:#a03022;fill-opacity:1"
             d="m 39.854065,159.01216 c 0,-0.0573 1.693004,-2.54411 3.762231,-5.52616 1.306834,-2.01806 2.906152,-3.72486 4.164516,-5.77469 h 3.406627 3.484069 l -3.528488,5.11528 -3.528487,5.11528 -0.632951,0.52917 -0.632952,0.52916 -3.247283,0.0581 -3.247282,0.0581 z"
             id="path2"
             sodipodi:nodetypes="sscccccccccs" /></g><path
           style="fill:#ffffff;fill-opacity:0.6;stroke-width:0.595942"
           d="m 172.16963,173.35531 0.71283,-0.1423 0.68478,-0.33712 0.68478,-0.33711 0.51336,-0.56171 0.51337,-0.56171 0.22435,-0.59962 0.22435,-0.59962 0.002,-0.8454 0.002,-0.84539 -0.2198,-0.58648 -0.2198,-0.58649 -0.38764,-0.45288 -0.38764,-0.45287 -0.55097,-0.35245 c -0.30303,-0.19384 -0.80227,-0.44592 -1.10944,-0.56016 -0.30716,-0.11425 -1.14976,-0.34778 -1.87244,-0.51897 -0.72269,-0.17118 -1.45588,-0.36513 -1.62933,-0.43098 -0.17344,-0.0659 -0.42178,-0.21945 -0.55186,-0.3413 l -0.23652,-0.22156 v -0.3565 c 0,-0.19607 0.046,-0.4423 0.10205,-0.54718 l 0.10205,-0.19069 0.42567,-0.17031 0.42567,-0.17032 0.54973,0.002 0.54974,0.002 0.43978,0.19967 0.43978,0.19967 0.16465,0.31839 c 0.0906,0.17512 0.16464,0.3917 0.16464,0.48129 v 0.1629 h 1.83755 1.83754 l -0.0666,-0.49931 c -0.0366,-0.27462 -0.13184,-0.68697 -0.21162,-0.91634 -0.0798,-0.22936 -0.26104,-0.61493 -0.4028,-0.85682 l -0.25774,-0.4398 -0.48794,-0.4295 -0.48793,-0.4295 -0.59093,-0.27955 c -0.32502,-0.15376 -0.87487,-0.34709 -1.22189,-0.42963 l -0.63095,-0.15006 h -1.10373 -1.10374 l -0.6767,0.16074 -0.6767,0.16074 -0.68983,0.33956 -0.68982,0.33956 -0.53079,0.53238 -0.53079,0.53238 -0.23713,0.49196 -0.23714,0.49196 -0.10619,0.68212 -0.1062,0.68211 0.10763,0.58225 0.10764,0.58224 0.21896,0.42921 0.21897,0.42921 0.43883,0.42587 0.43883,0.42587 0.4766,0.24069 c 0.26213,0.13238 0.71277,0.32055 1.00143,0.41816 0.28866,0.0976 1.12286,0.31229 1.85379,0.4771 l 1.32895,0.29965 0.42557,0.21712 0.42558,0.2171 0.16462,0.23504 0.16462,0.23503 v 0.23134 0.23134 l -0.26344,0.31309 -0.26345,0.31309 -0.53724,0.12888 -0.53724,0.12888 -0.55243,-0.057 -0.55242,-0.057 -0.43801,-0.22346 -0.43801,-0.22346 -0.2058,-0.33738 c -0.1132,-0.18557 -0.23486,-0.49113 -0.27037,-0.67903 l -0.0646,-0.34163 h -1.7753 -1.7753 l 0.002,0.28907 c 0.001,0.15899 0.0684,0.60335 0.14985,0.98747 l 0.14803,0.6984 0.22261,0.43635 c 0.12244,0.23999 0.39795,0.63114 0.61225,0.86921 0.2143,0.23807 0.62784,0.58568 0.91898,0.77246 l 0.52933,0.33961 0.73207,0.22923 0.73208,0.22922 0.8935,0.0755 c 0.49142,0.0415 1.20096,0.057 1.57676,0.0343 0.37579,-0.0226 1.00403,-0.10519 1.39609,-0.18346 z m -60.4856,-0.1535 c -0.0793,-0.11632 -0.92472,-1.34442 -1.87866,-2.72912 -0.95394,-1.3847 -1.76771,-2.50758 -1.80838,-2.49529 -0.0407,0.0123 -0.5317,0.68125 -1.0912,1.48658 l -1.01726,1.46423 0.17522,0.32276 c 0.0964,0.17753 0.42214,0.6539 0.72393,1.05859 l 0.5487,0.73583 0.36727,0.18379 0.36728,0.18379 1.87866,1.7e-4 1.87865,1.6e-4 z m 5.79492,-1.8383 v -2.04979 h 1.46647 1.46647 l 0.55704,-0.11785 c 0.30638,-0.0648 0.84086,-0.24662 1.18775,-0.404 l 0.6307,-0.28616 0.52954,-0.47916 0.52953,-0.47916 0.28826,-0.52962 c 0.15854,-0.29129 0.35729,-0.75715 0.44167,-1.03524 l 0.1534,-0.5056 v -0.94606 -0.94606 l -0.14675,-0.48348 c -0.0807,-0.26592 -0.26468,-0.7153 -0.40884,-0.99862 l -0.26209,-0.51514 -0.47041,-0.47546 -0.4704,-0.47547 -0.54923,-0.29893 c -0.30208,-0.16441 -0.79284,-0.36993 -1.09057,-0.45671 l -0.54134,-0.15778 -2.71391,-0.0517 -2.71391,-0.0517 -0.4629,0.17679 -0.46291,0.17678 -0.26174,0.31107 -0.26175,0.31106 -0.10857,0.39093 -0.10857,0.39092 -5.9e-4,6.01799 -5.8e-4,6.01798 h 1.89211 1.89212 z m 0,-6.84249 v -1.84942 l 1.02489,0.0361 1.0249,0.0361 0.42047,0.21632 0.42047,0.21633 0.23652,0.46293 0.23651,0.46294 v 0.42849 0.42848 l -0.23651,0.46902 -0.23652,0.46902 -0.46902,0.23652 -0.46903,0.23651 h -0.97634 -0.97634 z m 18.81604,7.36808 v -1.52421 h -3.04841 -3.04841 v -1.15629 -1.1563 h 2.78561 2.78563 v -1.5242 -1.5242 h -2.78563 -2.78561 v -1.1563 -1.15629 h 3.04841 3.04841 v -1.52421 -1.5242 h -4.94052 -4.94053 l 0.002,6.22822 0.002,6.22821 0.23479,0.41259 0.23478,0.41258 0.46328,0.2444 0.46329,0.2444 h 4.24072 4.24073 z m 6.20193,-0.74084 v -2.26505 l 0.63972,0.0313 0.6397,0.0313 1.18007,2.20747 1.18007,2.20746 2.02516,0.0286 2.02517,0.0286 -0.0344,-0.13732 c -0.019,-0.0755 -0.62324,-1.2204 -1.3429,-2.54416 l -1.30847,-2.40683 0.3043,-0.21748 c 0.16736,-0.11961 0.50783,-0.40089 0.75661,-0.62506 l 0.45231,-0.40759 0.33288,-0.67616 0.33287,-0.67617 0.048,-1.07858 0.048,-1.07859 -0.18081,-0.62195 c -0.0994,-0.34207 -0.29603,-0.81856 -0.43686,-1.05887 l -0.25605,-0.43692 -0.50721,-0.47444 c -0.27896,-0.26094 -0.69131,-0.56821 -0.91633,-0.68282 -0.22501,-0.11462 -0.66928,-0.29132 -0.98727,-0.39266 l -0.57814,-0.18426 -2.76684,-0.049 -2.76684,-0.049 -0.46254,0.17664 -0.46253,0.17665 -0.26174,0.31106 -0.26175,0.31106 -0.10857,0.39093 -0.10857,0.39093 -5.9e-4,6.01798 -5.9e-4,6.01798 h 1.89212 1.89212 z m 0,-6.82605 v -1.65475 l 1.07746,0.0431 1.07746,0.0431 0.38803,0.1881 0.38803,0.18809 0.1724,0.26311 0.17239,0.2631 0.0504,0.54251 0.0505,0.5425 -0.1904,0.36434 -0.1904,0.36433 -0.35775,0.20661 -0.35774,0.20662 -1.14018,0.047 -1.14019,0.047 z m 16.60858,3.73009 v -5.36099 h 2.04979 2.04979 v -1.52507 -1.52508 l -5.96542,0.0271 -5.96542,0.0272 v 1.47164 1.47165 l 2.07607,0.0285 2.07607,0.0285 v 5.35877 5.35878 h 1.83956 1.83956 z m -49.35269,-5.37705 c 0.92503,-1.3351 1.77116,-2.56649 1.88029,-2.73642 l 0.1984,-0.30897 -2.00433,0.0328 -2.00433,0.0328 -0.29642,0.2201 -0.29643,0.2201 -0.65699,0.92956 c -0.36134,0.51126 -0.65698,0.97205 -0.65698,1.02398 0,0.0519 0.4555,0.75263 1.01222,1.55711 0.55672,0.80449 1.04158,1.46129 1.07746,1.45955 0.0359,-0.002 0.82208,-1.0955 1.74711,-2.43061 z"
           id="path1"
           sodipodi:nodetypes="ccccccccccccccssssscsccccccccsscccssscccsscccccccccccccccccccssscccccccccccccccssccccscssscccssscsssscsscccccsccccsscccsscccsscccssccccccccccccccccccccccccccccccccccccccccccccccccccccccccccccccccccccsscsscccccsscssscccccccccccccccccccccccccccccccccccccccccccccccccscccccsssccc" /></g><g
         id="g3"
         transform="translate(-0.183517,-14.866614)"><path
           style="fill:#c83c2b;fill-opacity:0.8;stroke-width:0.595942"
           d="m 98.387569,177.47157 h 76.977121 v 5.41356 c -0.0101,2.63063 -2.05301,4.44612 -4.49857,4.47049 H 98.387569 Z"
           id="path3"
           sodipodi:nodetypes="cccccc" /><text
           xml:space="preserve"
           style="font-style:normal;font-variant:normal;font-weight:bold;font-stretch:normal;font-size:6.6224px;font-family:'Helvetica Neue';-inkscape-font-specification:'Helvetica Neue, Bold';font-variant-ligatures:normal;font-variant-caps:normal;font-variant-numeric:normal;font-variant-east-asian:normal;text-align:start;letter-spacing:0.668546px;word-spacing:0.0693778px;writing-mode:lr-tb;direction:ltr;text-anchor:start;fill:#ffffff;fill-opacity:0.6;stroke-width:2.38317;stroke-opacity:0.835821"
           x="104.16903"
           y="184.61957"
           id="text23"><tspan
             sodipodi:role="line"
             id="tspan23"
             style="font-style:normal;font-variant:normal;font-weight:bold;font-stretch:normal;font-size:6.6224px;font-family:'Helvetica Neue';-inkscape-font-specification:'Helvetica Neue, Bold';font-variant-ligatures:normal;font-variant-caps:normal;font-variant-numeric:normal;font-variant-east-asian:normal;fill:#ffffff;fill-opacity:0.6;stroke-width:2.38317"
             x="104.16903"
             y="184.61957">S</tspan></text><text
           xml:space="preserve"
           style="font-style:normal;font-variant:normal;font-weight:bold;font-stretch:normal;font-size:6.6224px;font-family:'Helvetica Neue';-inkscape-font-specification:'Helvetica Neue, Bold';font-variant-ligatures:normal;font-variant-caps:normal;font-variant-numeric:normal;font-variant-east-asian:normal;text-align:start;letter-spacing:0.668546px;word-spacing:0.0693778px;writing-mode:lr-tb;direction:ltr;text-anchor:start;fill:#ffffff;fill-opacity:0.6;stroke-width:2.38317;stroke-opacity:0.835821"
           x="110.31841"
           y="184.61957"
           id="text24"><tspan
             sodipodi:role="line"
             id="tspan24"
             style="fill:#ffffff;fill-opacity:0.6;stroke-width:2.38317"
             x="110.31841"
             y="184.61957">U</tspan></text><text
           xml:space="preserve"
           style="font-style:normal;font-variant:normal;font-weight:bold;font-stretch:normal;font-size:6.6224px;font-family:'Helvetica Neue';-inkscape-font-specification:'Helvetica Neue, Bold';font-variant-ligatures:normal;font-variant-caps:normal;font-variant-numeric:normal;font-variant-east-asian:normal;text-align:start;letter-spacing:0.668546px;word-spacing:0.0693778px;writing-mode:lr-tb;direction:ltr;text-anchor:start;fill:#ffffff;fill-opacity:0.6;stroke-width:2.38317;stroke-opacity:0.835821"
           x="117.14465"
           y="184.61957"
           id="text25"><tspan
             sodipodi:role="line"
             id="tspan25"
             style="fill:#ffffff;fill-opacity:0.6;stroke-width:2.38317"
             x="117.14465"
             y="184.61957">M</tspan></text><text
           xml:space="preserve"
           style="font-style:normal;font-variant:normal;font-weight:bold;font-stretch:normal;font-size:6.6224px;font-family:'Helvetica Neue';-inkscape-font-specification:'Helvetica Neue, Bold';font-variant-ligatures:normal;font-variant-caps:normal;font-variant-numeric:normal;font-variant-east-asian:normal;text-align:start;letter-spacing:0.668546px;word-spacing:0.0693778px;writing-mode:lr-tb;direction:ltr;text-anchor:start;fill:#ffffff;fill-opacity:0.6;stroke-width:2.38317;stroke-opacity:0.835821"
           x="125.26049"
           y="184.61957"
           id="text26"><tspan
             sodipodi:role="line"
             id="tspan26"
             style="fill:#ffffff;fill-opacity:0.6;stroke-width:2.38317"
             x="125.26049"
             y="184.61957">M</tspan></text><text
           xml:space="preserve"
           style="font-style:normal;font-variant:normal;font-weight:bold;font-stretch:normal;font-size:6.6224px;font-family:'Helvetica Neue';-inkscape-font-specification:'Helvetica Neue, Bold';font-variant-ligatures:normal;font-variant-caps:normal;font-variant-numeric:normal;font-variant-east-asian:normal;text-align:start;letter-spacing:0.668546px;word-spacing:0.0693778px;writing-mode:lr-tb;direction:ltr;text-anchor:start;fill:#ffffff;fill-opacity:0.6;stroke-width:2.38317;stroke-opacity:0.835821"
           x="133.16258"
           y="184.61028"
           id="text27"><tspan
             sodipodi:role="line"
             id="tspan27"
             style="fill:#ffffff;fill-opacity:0.6;stroke-width:2.38317"
             x="133.16258"
             y="184.61028">I</tspan></text><text
           xml:space="preserve"
           style="font-style:normal;font-variant:normal;font-weight:bold;font-stretch:normal;font-size:6.6224px;font-family:'Helvetica Neue';-inkscape-font-specification:'Helvetica Neue, Bold';font-variant-ligatures:normal;font-variant-caps:normal;font-variant-numeric:normal;font-variant-east-asian:normal;text-align:start;letter-spacing:0.668546px;word-spacing:0.0693778px;writing-mode:lr-tb;direction:ltr;text-anchor:start;fill:#ffffff;fill-opacity:0.6;stroke-width:2.38317;stroke-opacity:0.835821"
           x="137.12338"
           y="184.61957"
           id="text28"><tspan
             sodipodi:role="line"
             id="tspan28"
             style="fill:#ffffff;fill-opacity:0.6;stroke-width:2.38317"
             x="137.12338"
             y="184.61957">T</tspan></text><text
           xml:space="preserve"
           style="font-style:normal;font-variant:normal;font-weight:bold;font-stretch:normal;font-size:6.6224px;font-family:'Helvetica Neue';-inkscape-font-specification:'Helvetica Neue, Bold';font-variant-ligatures:normal;font-variant-caps:normal;font-variant-numeric:normal;font-variant-east-asian:normal;text-align:start;letter-spacing:0.668546px;word-spacing:0.0693778px;writing-mode:lr-tb;direction:ltr;text-anchor:start;fill:#ffffff;fill-opacity:0.6;stroke-width:2.38317;stroke-opacity:0.835821"
           x="146.74162"
           y="184.61957"
           id="text29"><tspan
             sodipodi:role="line"
             id="tspan29"
             style="fill:#ffffff;fill-opacity:0.6;stroke-width:2.38317"
             x="146.74162"
             y="184.61957">2</tspan></text><text
           xml:space="preserve"
           style="font-style:normal;font-variant:normal;font-weight:bold;font-stretch:normal;font-size:6.6224px;font-family:'Helvetica Neue';-inkscape-font-specification:'Helvetica Neue, Bold';font-variant-ligatures:normal;font-variant-caps:normal;font-variant-numeric:normal;font-variant-east-asian:normal;text-align:start;letter-spacing:0.668546px;word-spacing:0.0693778px;writing-mode:lr-tb;direction:ltr;text-anchor:start;fill:#ffffff;fill-opacity:0.6;stroke-width:2.38317;stroke-opacity:0.835821"
           x="153.04868"
           y="184.61957"
           id="text30"><tspan
             sodipodi:role="line"
             id="tspan30"
             style="fill:#ffffff;fill-opacity:0.6;stroke-width:2.38317"
             x="153.04868"
             y="184.61957">0</tspan></text><text
           xml:space="preserve"
           style="font-style:normal;font-variant:normal;font-weight:bold;font-stretch:normal;font-size:6.6224px;font-family:'Helvetica Neue';-inkscape-font-specification:'Helvetica Neue, Bold';font-variant-ligatures:normal;font-variant-caps:normal;font-variant-numeric:normal;font-variant-east-asian:normal;text-align:start;letter-spacing:0.668546px;word-spacing:0.0693778px;writing-mode:lr-tb;direction:ltr;text-anchor:start;fill:#ffffff;fill-opacity:0.6;stroke-width:2.38317;stroke-opacity:0.835821"
           x="159.55957"
           y="184.61028"
           id="text31"><tspan
             sodipodi:role="line"
             id="tspan31"
             style="fill:#ffffff;fill-opacity:0.6;stroke-width:2.38317"
             x="159.55957"
             y="184.61028">2</tspan></text><text
           xml:space="preserve"
           style="font-style:normal;font-variant:normal;font-weight:bold;font-stretch:normal;font-size:6.6224px;font-family:'Helvetica Neue';-inkscape-font-specification:'Helvetica Neue, Bold';font-variant-ligatures:normal;font-variant-caps:normal;font-variant-numeric:normal;font-variant-east-asian:normal;text-align:start;letter-spacing:0.668546px;word-spacing:0.0693778px;writing-mode:lr-tb;direction:ltr;text-anchor:start;fill:#ffffff;fill-opacity:0.6;stroke-width:2.38317;stroke-opacity:0.835821"
           x="165.6628"
           y="184.61957"
           id="text32"><tspan
             sodipodi:role="line"
             id="tspan32"
             style="fill:#ffffff;fill-opacity:0.6;stroke-width:2.38317"
             x="165.6628"
             y="184.61957">5</tspan></text></g></g></g><style
     type="text/css"
     id="style1">
	.st0{fill:none;}
	.st1{fill:#FFFFFF;}
	.st2{fill:#DA291C;}
</style></svg>
