<?xml version="1.0" encoding="UTF-8" standalone="no"?>
<svg
   width="271.84698"
   height="51.200985"
   viewBox="0 0 271.84699 51.200985"
   version="1.1"
   id="svg1"
   sodipodi:docname="xperts-2023.svg"
   inkscape:version="1.3 (0e150ed, 2023-07-21)"
   xmlns:inkscape="http://www.inkscape.org/namespaces/inkscape"
   xmlns:sodipodi="http://sodipodi.sourceforge.net/DTD/sodipodi-0.dtd"
   xmlns="http://www.w3.org/2000/svg"
   xmlns:svg="http://www.w3.org/2000/svg">
  <sodipodi:namedview
     id="namedview1"
     pagecolor="#ffffff"
     bordercolor="#666666"
     borderopacity="1.0"
     inkscape:showpageshadow="2"
     inkscape:pageopacity="0.0"
     inkscape:pagecheckerboard="0"
     inkscape:deskcolor="#d1d1d1"
     inkscape:zoom="1.282033"
     inkscape:cx="144.30206"
     inkscape:cy="9.750139"
     inkscape:window-width="1440"
     inkscape:window-height="876"
     inkscape:window-x="0"
     inkscape:window-y="24"
     inkscape:window-maximized="0"
     inkscape:current-layer="svg1" />
  <defs
     id="defs1">
    <clipPath
       id="clip-path">
      <rect
         id="Rectangle_2"
         data-name="Rectangle 2"
         width="106.08"
         height="20"
         fill="none"
         x="0"
         y="0" />
    </clipPath>
    <clipPath
       id="clip-path-2">
      <rect
         id="Rectangle_3"
         data-name="Rectangle 3"
         width="154.847"
         height="20"
         fill="#ffffff"
         x="0"
         y="0" />
    </clipPath>
  </defs>
  <g
     id="g2"
     transform="translate(47.3575,-6.9994609)"
     style="fill:#ffffff;fill-opacity:0.50442475">
    <g
       id="fortinet-logo-white"
       transform="translate(0,7)"
       style="fill:#ffffff;fill-opacity:0.50442475">
      <path
         id="Path_18"
         data-name="Path 18"
         d="m 236.641,22.594 h 0.588 a 0.442,0.442 0 0 1 0.294,0.074 0.562,0.562 0 0 1 0.147,0.368 c 0,0.147 -0.074,0.221 -0.147,0.368 a 0.557,0.557 0 0 1 -0.294,0.147 h -0.588 z m 1.1,1.176 a 0.574,0.574 0 0 0 0.294,-0.294 0.486,0.486 0 0 0 0.074,-0.441 0.933,0.933 0 0 0 -0.074,-0.441 c -0.074,-0.074 -0.147,-0.221 -0.294,-0.221 a 0.551,0.551 0 0 0 -0.368,-0.074 H 236.2 v 2.426 h 0.441 v -0.882 h 0.662 l 0.441,0.882 h 0.441 l -0.441,-0.956 v 0"
         transform="translate(-62.524,-5.903)"
         fill="#fff"
         style="fill:#ffffff;fill-opacity:0.50442475" />
      <path
         id="Path_19"
         data-name="Path 19"
         d="m 238.334,24.172 a 1.772,1.772 0 0 1 -0.735,0.735 1.925,1.925 0 0 1 -1.985,0 1.772,1.772 0 0 1 -0.735,-0.735 2.393,2.393 0 0 1 -0.294,-1.029 1.688,1.688 0 0 1 0.294,-1.029 1.772,1.772 0 0 1 0.735,-0.735 1.925,1.925 0 0 1 1.985,0 1.772,1.772 0 0 1 0.735,0.735 2.394,2.394 0 0 1 0.294,1.029 2.727,2.727 0 0 1 -0.294,1.029 m 0.441,-1.985 a 2.1,2.1 0 0 0 -1.25,-1.25 1.266,1.266 0 0 0 -0.882,-0.147 2.329,2.329 0 0 0 -1.691,0.662 2.641,2.641 0 0 0 -0.515,0.735 1.266,1.266 0 0 0 -0.147,0.882 2.265,2.265 0 0 0 2.353,2.353 3.16,3.16 0 0 0 0.882,-0.147 2.1,2.1 0 0 0 1.25,-1.25 1.266,1.266 0 0 0 0.147,-0.882 1.4,1.4 0 0 0 -0.147,-0.956"
         transform="translate(-62.01,-5.496)"
         fill="#fff"
         style="fill:#ffffff;fill-opacity:0.50442475" />
      <path
         id="Path_20"
         data-name="Path 20"
         d="m 138.2,19.926 h 4.853 V 0 H 138.2 Z"
         transform="translate(-36.582)"
         fill="#fff"
         style="fill:#ffffff;fill-opacity:0.50442475" />
      <path
         id="Path_21"
         data-name="Path 21"
         d="m 109,4.265 h 5.074 V 19.926 H 119 V 4.265 h 8.824 V 0 H 109 Z"
         transform="translate(-28.853)"
         fill="#fff"
         style="fill:#ffffff;fill-opacity:0.50442475" />
      <path
         id="Path_22"
         data-name="Path 22"
         d="m 215.4,0 v 4.265 h 5.074 V 19.926 H 225.4 V 4.265 h 8.75 V 0 Z"
         transform="translate(-57.018)"
         fill="#fff"
         style="fill:#ffffff;fill-opacity:0.50442475" />
      <path
         id="Path_23"
         data-name="Path 23"
         d="m 0,19.926 h 4.853 v -7.352 h 13.9 V 8.309 H 4.853 V 4.265 H 21.1 V 0 H 0 Z"
         fill="#fff"
         style="fill:#ffffff;fill-opacity:0.50442475" />
      <path
         id="Path_24"
         data-name="Path 24"
         d="m 185,19.926 h 19.926 v -4.264 h -15.073 v -3.53 h 12.132 V 7.794 H 189.853 V 4.265 h 14.779 V 0 H 185 Z"
         transform="translate(-48.971)"
         fill="#fff"
         style="fill:#ffffff;fill-opacity:0.50442475" />
      <path
         id="Path_25"
         data-name="Path 25"
         d="m 166.3,0 h -16.4 v 19.926 h 4.853 V 4.265 h 10.956 a 1.318,1.318 0 0 1 1.324,1.324 v 14.337 h 4.853 V 5.662 A 5.511,5.511 0 0 0 166.3,0 v 0"
         transform="translate(-39.679)"
         fill="#fff"
         style="fill:#ffffff;fill-opacity:0.50442475" />
      <path
         id="Path_26"
         data-name="Path 26"
         d="m 93.232,7.206 a 1.131,1.131 0 0 1 -1.1,1.1 H 80.953 V 4.265 h 11.176 a 1.131,1.131 0 0 1 1.1,1.1 z M 92.791,0 H 76.1 v 20 h 4.853 v -7.353 h 10.956 a 1.068,1.068 0 0 1 1.029,1.1 V 20 h 4.853 v -6.324 a 2.937,2.937 0 0 0 -1.471,-2.5 5.332,5.332 0 0 0 1.691,-3.971 V 5.368 A 5.227,5.227 0 0 0 92.791,0 v 0"
         transform="translate(-20.144)"
         fill="#fff"
         style="fill:#ffffff;fill-opacity:0.50442475" />
      <path
         id="Path_27"
         data-name="Path 27"
         d="M 68.088,10 H 60 v 5.221 h 8.088 z"
         transform="translate(-15.882,-2.647)"
         fill="#fff"
         style="fill:#ffffff;fill-opacity:0.50442475" />
      <path
         id="Path_28"
         data-name="Path 28"
         d="m 46.1,25.247 h 8.015 V 20.1 H 46.1 Z"
         transform="translate(-12.203,-5.321)"
         fill="#fff"
         style="fill:#ffffff;fill-opacity:0.50442475" />
      <path
         id="Path_29"
         data-name="Path 29"
         d="M 68.088,4.338 A 4.3,4.3 0 0 0 63.75,0 H 60 v 5.147 h 8.088 z"
         transform="translate(-15.882)"
         fill="#fff"
         style="fill:#ffffff;fill-opacity:0.50442475" />
      <path
         id="Path_30"
         data-name="Path 30"
         d="m 46.1,0 v 5.147 h 8.015 V 0 Z"
         transform="translate(-12.203)"
         fill="#fff"
         style="fill:#ffffff;fill-opacity:0.50442475" />
      <path
         id="Path_31"
         data-name="Path 31"
         d="m 32.1,10 v 0 5.221 h 8.088 V 10 Z"
         transform="translate(-8.497,-2.647)"
         fill="#fff"
         style="fill:#ffffff;fill-opacity:0.50442475" />
      <path
         id="Path_32"
         data-name="Path 32"
         d="m 60,25.247 h 3.75 a 4.3,4.3 0 0 0 4.338,-4.338 V 20.1 H 60 Z"
         transform="translate(-15.882,-5.321)"
         fill="#fff"
         style="fill:#ffffff;fill-opacity:0.50442475" />
      <path
         id="Path_33"
         data-name="Path 33"
         d="m 32.1,20.909 a 4.3,4.3 0 0 0 4.338,4.338 h 3.75 V 20.1 H 32.1 Z"
         transform="translate(-8.497,-5.321)"
         fill="#fff"
         style="fill:#ffffff;fill-opacity:0.50442475" />
      <path
         id="Path_34"
         data-name="Path 34"
         d="m 32.1,4.338 v 0.809 h 8.015 V 0 H 36.438 A 4.395,4.395 0 0 0 32.1,4.338"
         transform="translate(-8.497)"
         fill="#fff"
         style="fill:#ffffff;fill-opacity:0.50442475" />
    </g>
  </g>
  <g
     id="g1"
     transform="translate(-218,24.200984)"
     style="fill:#ffffff;fill-opacity:0.50442475">
    <g
       id="Group_5"
       data-name="Group 5"
       transform="translate(218,7)"
       style="fill:#ffffff;fill-opacity:0.50442475">
      <g
         id="Group_4"
         data-name="Group 4"
         clip-path="url(#clip-path)"
         style="fill:#ffffff;fill-opacity:0.50442475">
        <path
           id="Path_35"
           data-name="Path 35"
           d="m 66.658,0.84 h 8.419 c 4.333,0 7.238,2.743 7.238,6.9 0,4.2 -2.981,6.819 -7.428,6.819 h -2.934 v 5.79 h -5.295 z m 7.162,9.6 c 1.857,0 2.972,-1.038 2.972,-2.7 0,-1.662 -1.115,-2.671 -2.972,-2.671 h -1.867 v 5.371 z"
           transform="translate(-45.503,-0.574)"
           fill="#fff"
           style="fill:#ffffff;fill-opacity:0.50442475" />
        <path
           id="Path_36"
           data-name="Path 36"
           d="M 122.145,0.84 H 136.2 v 4.267 h -8.76 v 3.352 h 8.038 v 4.267 h -8.038 v 3.352 h 8.724 v 4.267 h -14.019 z"
           transform="translate(-83.38,-0.574)"
           fill="#fff"
           style="fill:#ffffff;fill-opacity:0.50442475" />
        <path
           id="Path_37"
           data-name="Path 37"
           d="m 174.335,0.841 h 8.419 c 4.334,0 7.238,2.476 7.238,6.629 a 5.8,5.8 0 0 1 -3.314,5.6 l 3.962,7.276 h -5.752 l -3.428,-6.438 h -1.83 v 6.438 h -5.295 z m 7.165,8.952 c 1.858,0 2.972,-0.657 2.972,-2.324 0,-1.667 -1.114,-2.4 -2.972,-2.4 h -1.87 v 4.724 z"
           transform="translate(-119.006,-0.574)"
           fill="#fff"
           style="fill:#ffffff;fill-opacity:0.50442475" />
        <path
           id="Path_38"
           data-name="Path 38"
           d="m 227.468,0.84 h 16.953 v 4.267 h -5.867 v 15.238 h -5.219 V 5.107 h -5.867 z"
           transform="translate(-155.277,-0.574)"
           fill="#fff"
           style="fill:#ffffff;fill-opacity:0.50442475" />
        <path
           id="Path_39"
           data-name="Path 39"
           d="m 291.132,4.343 c -1.638,0 -2.352,0.629 -2.362,1.486 -0.047,0.933 0.781,1.476 2.629,1.866 l 1.6,0.343 c 4.3,0.924 6.076,3.01 6.1,5.981 -0.024,3.848 -2.986,5.981 -7.929,5.981 -5.086,0 -8.4,-2.19 -8.419,-7.086 h 5.028 c 0.086,1.79 1.286,2.743 3.314,2.743 1.7,0 2.571,-0.676 2.59,-1.638 -0.019,-0.886 -0.762,-1.428 -2.933,-1.9 L 288.807,11.7 C 285.35,10.957 283.236,9.262 283.245,6.214 283.218,2.5 286.494,0 291.132,0 c 4.724,0 7.676,2.533 7.7,6.362 h -5.072 c -0.1,-1.267 -0.914,-2.019 -2.628,-2.019"
           transform="translate(-193.014)"
           fill="#fff"
           style="fill:#ffffff;fill-opacity:0.50442475" />
        <path
           id="Path_40"
           data-name="Path 40"
           d="m 38.035,37.771 -3,4.33 2.365,3.423 h 6.011 z"
           transform="translate(-23.913,-25.783)"
           fill="#fff"
           style="fill:#ffffff;fill-opacity:0.50442475" />
        <path
           id="Path_41"
           data-name="Path 41"
           d="m 38.035,8.594 -3,-4.33 L 37.4,0.84 h 6.011 z"
           transform="translate(-23.913,-0.574)"
           fill="#fff"
           style="fill:#ffffff;fill-opacity:0.50442475" />
        <path
           id="Path_42"
           data-name="Path 42"
           d="M 12.749,10.578 5.993,0.841 H 0 l 6.747,9.738 z"
           transform="translate(0,-0.574)"
           fill="#fff"
           style="fill:#ffffff;fill-opacity:0.50442475" />
        <path
           id="Path_43"
           data-name="Path 43"
           d="M 12.749,31.523 5.993,41.259 H 0 l 6.747,-9.737 z"
           transform="translate(0,-21.519)"
           fill="#fff"
           opacity="0.75"
           style="fill:#ffffff;fill-opacity:0.50442475" />
      </g>
    </g>
    <g
       id="Group_7"
       data-name="Group 7"
       transform="translate(335,7)"
       style="fill:#ffffff;fill-opacity:0.50442475">
      <g
         id="Group_6"
         data-name="Group 6"
         clip-path="url(#clip-path-2)"
         style="fill:#ffffff;fill-opacity:0.50442475">
        <path
           id="Path_44"
           data-name="Path 44"
           d="m 246.971,15.546 c -0.887,0 -1.506,0.863 -1.515,2.808 -0.009,1.991 0.629,2.882 1.515,2.882 0.886,0 1.519,-0.891 1.515,-2.882 0,-1.945 -0.628,-2.808 -1.515,-2.808"
           transform="translate(-131.505,-8.329)"
           fill="#fff"
           style="fill:#ffffff;fill-opacity:0.50442475" />
        <path
           id="Path_45"
           data-name="Path 45"
           d="M 0,20 H 154.847 V 0 H 0 Z m 12.82,-5.153 c -2.466,0 -4.074,-1.062 -4.083,-3.436 h 2.439 c 0.042,0.868 0.623,1.33 1.607,1.33 0.823,0 1.248,-0.328 1.256,-0.795 -0.008,-0.429 -0.37,-0.693 -1.422,-0.923 l -0.942,-0.2 c -1.677,-0.36 -2.7,-1.182 -2.7,-2.66 -0.014,-1.8 1.575,-3.012 3.824,-3.012 2.291,0 3.722,1.229 3.731,3.085 H 14.077 C 14.026,7.622 13.633,7.257 12.802,7.257 c -0.794,0 -1.141,0.305 -1.146,0.721 -0.023,0.453 0.379,0.716 1.275,0.905 l 0.776,0.167 c 2.087,0.448 2.946,1.459 2.956,2.9 -0.01,1.866 -1.446,2.9 -3.843,2.9 m 17.533,-3.511 c 0,2.162 -1.654,3.511 -4.083,3.511 -2.448,0 -4.083,-1.349 -4.083,-3.511 V 5.278 h 2.568 v 5.838 a 1.515,1.515 0 0 0 3.03,0 V 5.278 h 2.568 z m 16.663,3.4 H 44.5 V 9.268 h -0.074 l -2.106,5.4 H 40.808 L 38.7,9.231 h -0.074 v 5.505 h -2.51 V 5.278 h 3.2 l 2.2,5.358 h 0.11 l 2.2,-5.358 h 3.2 z m 16.663,0 H 61.166 V 9.268 h -0.074 l -2.106,5.4 H 57.471 L 55.365,9.231 h -0.074 v 5.505 H 52.778 V 5.278 h 3.2 l 2.2,5.358 h 0.111 l 2.2,-5.358 h 3.2 z m 8.33,0 H 69.44 V 5.278 h 2.568 z m 13.729,-7.39 h -2.846 v 7.39 H 80.361 V 7.347 H 77.516 V 5.278 h 8.221 z m 19.918,7.39 H 98.4 v -1.85 l 3.528,-2.919 c 0.7,-0.577 1.127,-1.012 1.127,-1.681 a 1.2005703,1.2005703 0 0 0 -2.4,0.074 H 98.21 c 0,-1.991 1.428,-3.215 3.63,-3.215 2.268,0 3.713,1.155 3.713,2.919 0,1.095 -0.55,2.028 -2.707,3.824 l -0.887,0.739 v 0.055 h 3.695 z m 9.81,0.259 c -2.577,0 -4.184,-1.852 -4.175,-4.97 0.009,-3.118 1.6,-4.877 4.175,-4.877 2.575,0 4.18,1.765 4.176,4.877 -0.005,3.131 -1.6,4.974 -4.176,4.97 m 17.181,-0.259 h -7.26 v -1.85 l 3.528,-2.919 c 0.7,-0.577 1.127,-1.012 1.127,-1.681 a 1.2005703,1.2005703 0 0 0 -2.4,0.074 H 125.2 c 0,-1.991 1.427,-3.215 3.63,-3.215 2.268,0 3.713,1.155 3.713,2.919 0,1.095 -0.549,2.028 -2.707,3.824 l -0.887,0.739 v 0.055 h 3.695 z m 9.386,0.13 c -2.24,0 -3.834,-1.247 -3.843,-3.011 h 2.586 c 0.009,0.549 0.536,0.942 1.275,0.942 0.712,0 1.21,-0.411 1.2,-1 0.009,-0.573 -0.572,-0.979 -1.4,-0.979 H 140.89 V 9.047 h 0.961 c 0.766,0 1.3,-0.407 1.293,-0.98 a 0.975,0.975 0 0 0 -1.09,-0.942 1.084,1.084 0 0 0 -1.219,0.979 h -2.457 c 0.01,-1.732 1.533,-2.956 3.676,-2.956 2.1,0 3.575,1.159 3.566,2.753 a 1.953,1.953 0 0 1 -1.94,1.9 v 0.074 c 1.524,0.166 2.3,0.984 2.292,2.143 0.009,1.668 -1.622,2.845 -3.935,2.845"
           fill="#fff"
           style="fill:#ffffff;fill-opacity:0.50442475" />
      </g>
    </g>
  </g>
</svg>
