<svg id="art" xmlns="http://www.w3.org/2000/svg" viewBox="0 0 420 420"><defs><style>.cls-1{fill:#ffffff;}</style></defs><title>icon-security-fabric-pillar-security-operations</title><path class="cls-1" d="M311.32,160.13V129.51C279,126.17,248.4,116.71,220,100a234.6,234.6,0,0,1-91.32,29v71.16l23.08-40Z" transform="translate(-10 -10)"/><path class="cls-1" d="M128.68,240.12v4.1c0,8.45,2.56,16.78,6.51,24.63l39.67-68.72H311.32v-20h-148Z" transform="translate(-10 -10)"/><path class="cls-1" d="M147.51,287.51a165.91,165.91,0,0,0,14.24,15.32l36.2-62.7H311.32v-20H186.4Z" transform="translate(-10 -10)"/><path class="cls-1" d="M209.5,260.13,177.26,316c19.34,14.59,37,22.6,42.74,24,6.68-1.67,29.51-12.25,52.9-31.74,10.39-9.56,26.66-25.93,34.25-44.5l-2.09-3.63Z" transform="translate(-10 -10)"/><path class="cls-1" d="M220,430C104.21,430,10,335.79,10,220S104.21,10,220,10s210,94.21,210,210S335.79,430,220,430Zm0-400C115.23,30,30,115.23,30,220s85.23,190,190,190,190-85.23,190-190S324.77,30,220,30Z" transform="translate(-10 -10)"/></svg>