<?xml version="1.0" encoding="UTF-8"?><svg id="Security_Networking" xmlns="http://www.w3.org/2000/svg" viewBox="0 0 192 192"><defs><style>.cls-1{fill:#c8c8c8;}.cls-2{fill:#464646;}</style></defs><rect class="cls-1" x="10.03" y="84.52" width="171.92" height="22.82"/><path class="cls-2" d="m181.95,109.34H10.03c-1.1,0-2-.9-2-2v-22.82c0-1.1.9-2,2-2h171.92c1.1,0,2,.9,2,2v22.82c0,1.1-.9,2-2,2Zm-169.92-4h167.92v-18.82H12.03v18.82Z"/><path class="cls-2" d="m134.52,101.27h-11.4c-1.01,0-1.83-.82-1.83-1.83s.82-1.83,1.83-1.83h11.4c1.01,0,1.83.82,1.83,1.83s-.82,1.83-1.83,1.83Z"/><path class="cls-2" d="m134.52,94.26h-11.4c-1.01,0-1.83-.82-1.83-1.83s.82-1.83,1.83-1.83h11.4c1.01,0,1.83.82,1.83,1.83s-.82,1.83-1.83,1.83Z"/><path class="cls-2" d="m115.5,101.27h-4.39c-1.01,0-1.83-.82-1.83-1.83s.82-1.83,1.83-1.83h4.39c1.01,0,1.83.82,1.83,1.83s-.82,1.83-1.83,1.83Z"/><path class="cls-2" d="m115.5,94.26h-4.39c-1.01,0-1.83-.82-1.83-1.83s.82-1.83,1.83-1.83h4.39c1.01,0,1.83.82,1.83,1.83s-.82,1.83-1.83,1.83Z"/><path class="cls-2" d="m169.79,101.27h-27.41c-1.01,0-1.83-.82-1.83-1.83s.82-1.83,1.83-1.83h27.41c1.01,0,1.83.82,1.83,1.83s-.82,1.83-1.83,1.83Z"/><path class="cls-2" d="m169.79,94.26h-27.41c-1.01,0-1.83-.82-1.83-1.83s.82-1.83,1.83-1.83h27.41c1.01,0,1.83.82,1.83,1.83s-.82,1.83-1.83,1.83Z"/></svg>