<?xml version="1.0" encoding="UTF-8"?><svg id="Security_Networking" xmlns="http://www.w3.org/2000/svg" viewBox="0 0 192 192"><defs><style>.cls-1{fill:#c8c8c8;}.cls-2{fill:#464647;}.cls-3{fill:#464646;}</style></defs><path class="cls-3" d="m55.74,97.13c-.31,0-.62-.07-.91-.22-.84-.43-1.59-1.02-2.21-1.74l-1.4-1.64c-.55-.65-1.15-1.25-1.76-1.78-2.19-1.94-4.84-3.31-7.67-3.97l-21.99-5.21c-.63-.15-1.15-.6-1.4-1.2-.24-.61-.17-1.29.18-1.84,1.59-2.43,3.8-4.44,6.38-5.82l6.74-3.59c1.17-.62,2.27-1.38,3.27-2.24.04-.04.08-.07.13-.1.67-.58,1.28-1.2,1.82-1.85.04-.05.08-.09.12-.13.2-.24.41-.49.6-.75l1.8-2.4c.38-.5.97-.8,1.6-.8h109.85c.63,0,1.22.3,1.6.8l1.79,2.39c.2.26.4.52.61.76.04.04.08.08.12.13.55.65,1.16,1.27,1.83,1.85.04.03.08.06.12.1,1,.86,2.1,1.62,3.27,2.24l6.74,3.59c2.59,1.38,4.8,3.39,6.38,5.82.36.55.42,1.23.18,1.84s-.76,1.05-1.4,1.2l-21.98,5.21c-2.83.66-5.48,2.03-7.66,3.96-.63.55-1.23,1.15-1.78,1.8l-1.4,1.64c-.62.73-1.36,1.31-2.21,1.74-.85.43-1.89.2-2.47-.54-2.12-1.73-19.02-3.19-38.57-3.31h-.21c-19.54.12-36.43,1.57-38.55,3.31-.39.49-.97.76-1.57.76Zm78.92-.74h0Zm-38.58-7.33c15.47.1,34.02.84,40.05,3.67.05-.05.1-.1.15-.16l1.4-1.64c.68-.8,1.42-1.54,2.19-2.21,2.65-2.35,5.9-4.03,9.37-4.84l18.86-4.47c-.89-.86-1.9-1.59-3.01-2.18l-6.74-3.59c-1.39-.74-2.69-1.63-3.88-2.64-.04-.03-.08-.06-.12-.09-.83-.71-1.6-1.47-2.29-2.28-.04-.04-.08-.08-.12-.13-.29-.35-.59-.71-.86-1.07l-1.19-1.58H42.05l-1.19,1.59c-.27.36-.56.72-.86,1.07-.04.04-.08.09-.12.13-.69.8-1.46,1.57-2.28,2.28-.04.03-.08.07-.12.1-1.19,1.01-2.5,1.9-3.88,2.64l-6.74,3.59c-1.1.59-2.11,1.32-3.01,2.18l18.86,4.47c3.47.81,6.72,2.49,9.39,4.86.75.65,1.49,1.39,2.17,2.19l1.4,1.64c.05.05.1.11.15.16,6.03-2.83,24.57-3.57,40.04-3.66h.23Z"/><path class="cls-1" d="m46.25,139.96v7.94c0,1.22-.99,2.21-2.21,2.21h-21.43c-3.19,0-5.94-2.21-6.62-5.32l-.97-10.15c.73,2.14,2.64,3.65,4.88,3.87l20.4,2.01c1.46.14,2.92.06,4.35-.28l.1-.03c.5-.11.99-.2,1.5-.26Z"/><path class="cls-3" d="m44.04,152.11h-21.43c-4.1,0-7.71-2.9-8.58-6.9-.02-.08-.03-.16-.04-.23l-.97-10.15c-.1-1.01.58-1.93,1.57-2.15.99-.21,1.99.35,2.31,1.3.48,1.4,1.73,2.39,3.19,2.53l20.4,2.01c1.26.12,2.51.04,3.7-.23h.04c.65-.16,1.22-.26,1.8-.33.57-.06,1.13.12,1.56.5.42.38.67.92.67,1.49v7.94c0,2.32-1.89,4.21-4.21,4.21Zm-26.07-7.64c.51,2.12,2.45,3.64,4.64,3.64h21.43c.12,0,.21-.1.21-.21v-5.53c-1.38.24-2.76.29-4.15.15l-20.4-2.01c-.76-.07-1.49-.26-2.17-.54l.43,4.51Z"/><path class="cls-3" d="m136.21,95.13c-.65.33-1.37.53-2.13.57l-27.5,1.35c-2.7.13-5.27,1.17-7.31,2.95l-3.19,2.79-.1.1-.11-.1-3.19-2.79c-2.04-1.77-4.61-2.81-7.31-2.95l-27.5-1.35c-.75-.04-1.48-.24-2.13-.57,2.71-3.72,37.02-4.05,40.12-4.06h.22c3.07.02,37.41.34,40.12,4.06Z"/><path class="cls-2" d="m95.98,104.88c-.45,0-.91-.15-1.28-.46l-.11-.1-3.22-2.82c-1.69-1.47-3.86-2.35-6.09-2.46l-27.5-1.35c-1.02-.05-2.04-.32-2.94-.79-.52-.27-.9-.75-1.03-1.32-.14-.57-.01-1.17.33-1.64.79-1.09,2.27-3.11,21.41-4.24,9.61-.57,19.25-.64,20.31-.65h.23c17.5.11,38.94,1.04,41.74,4.89.34.47.46,1.07.33,1.64-.14.57-.51,1.05-1.03,1.32-.91.47-1.93.74-2.94.79l-27.5,1.35c-2.23.11-4.4.98-6.09,2.46l-3.26,2.85c-.38.35-.86.52-1.35.52Zm-27.25-10.65l16.73.82c3.12.15,6.15,1.38,8.52,3.44l1.98,1.74,1.98-1.73c2.38-2.06,5.4-3.29,8.53-3.44l16.73-.82c-7.07-.66-16.73-1.1-27.14-1.17h-.21c-10.4.06-20.06.51-27.13,1.17Zm65.93,2.16h.01-.01Zm-77.38,0s0,0,0,0h0Z"/><path class="cls-3" d="m38.47,69.21c-.06,0-.11,0-.17,0l-11.61-.98c-1.1-.09-1.92-1.06-1.82-2.16.09-1.1,1.06-1.92,2.16-1.82l11.61.98c1.1.09,1.92,1.06,1.82,2.16-.09,1.04-.96,1.83-1.99,1.83Z"/><path class="cls-3" d="m36.29,71.39c-.09,0-.17,0-.26-.02l-5.95-.77c-.58-.08-1.14-.26-1.63-.51l-1.13-.58c-1.06-.55-1.87-1.44-2.31-2.52-.4-.97-.48-2.02-.25-3.02l.33-1.46c.45-1.95,2.01-3.43,3.99-3.78l6.76-1.17c2-.35,3.99.54,5.07,2.27l1.85,2.98c.58.94.3,2.17-.64,2.75-.94.58-2.17.3-2.75-.64l-1.85-2.98c-.21-.33-.6-.51-.98-.44l-6.76,1.17c-.38.07-.69.36-.78.74l-.33,1.46c-.06.25,0,.47.06.61.08.2.24.37.45.48l1.12.57c.1.05.22.09.34.1l5.94.77c1.1.14,1.87,1.15,1.73,2.24-.13,1.01-.99,1.74-1.98,1.74Z"/><path class="cls-1" d="m145.7,139.87v.09c-.51-.06-1.01-.09-1.53-.09H47.78c-.51,0-1.02.03-1.53.09v-.09l4.89-12.03h89.66l4.89,12.03Z"/><path class="cls-3" d="m145.7,141.96c-.07,0-.15,0-.23-.01-.44-.05-.86-.07-1.3-.07H47.78c-.43,0-.87.02-1.3.07-.56.06-1.13-.12-1.56-.5-.42-.38-.67-.92-.67-1.49,0-.26.05-.6.15-.84l4.89-12.03c.31-.75,1.04-1.25,1.85-1.25h89.66c.81,0,1.55.49,1.85,1.25l4.89,12.03c.1.24.15.5.15.75v.09c0,.57-.24,1.11-.67,1.49-.37.33-.84.51-1.33.51Zm-96.48-4.09h93.5l-3.27-8.03H52.49l-3.27,8.03Z"/><path class="cls-3" d="m96.09,129.84c-1.1,0-2-.9-2-2v-3.64c0-1.1.9-2,2-2s2,.9,2,2v3.64c0,1.1-.9,2-2,2Z"/><path class="cls-3" d="m150.31,142.59c-1.17,0-2.32-.13-3.45-.4l-.14-.03c-.38-.09-.81-.16-1.25-.21-.87-.1-1.56-.75-1.73-1.58l-4.56-11.2-1.43-.96c-1.94-1.31-4.2-2-6.55-2H60.75c-2.35,0-4.61.69-6.54,2l-1.43.96-4.62,11.35c-.24.74-.88,1.34-1.67,1.43-.43.05-.85.12-1.27.22h-.03c-1.69.41-3.37.51-5.07.35l-20.4-2.01c-3.01-.29-5.59-2.34-6.58-5.21l-.8-2.35c-.28-.83-.41-1.67-.41-2.52v-3.41l.87-27.1c.04-1.43.25-2.89.64-4.35l1.81-6.81c.21-.78.87-1.36,1.67-1.47.8-.11,1.59.28,2,.98l1.29,2.22c.17.29.47.49.8.53l15.4,1.93c2.05.25,4.11-.07,5.95-.94l7.61-3.57c.71-.34,1.56-.22,2.16.3.77.66,1.5,1.41,2.19,2.21l1.4,1.64c.28.32.61.59.98.78.41.21.87.33,1.32.36l27.5,1.35c3.12.15,6.15,1.38,8.52,3.44l1.98,1.74,1.98-1.73c2.38-2.07,5.4-3.29,8.53-3.44l27.5-1.35c.45-.02.91-.14,1.31-.35.37-.19.71-.46.99-.78l1.4-1.64c.68-.8,1.42-1.54,2.19-2.21.6-.52,1.44-.63,2.16-.3l7.6,3.57c1.85.87,3.91,1.19,5.96.94l15.39-1.93c.34-.04.64-.24.81-.54l1.29-2.22c.41-.7,1.19-1.09,2-.98.8.11,1.46.69,1.67,1.47l1.8,6.8c.38,1.46.6,2.93.64,4.37l.87,27.03v3.47c0,.85-.14,1.69-.41,2.5l-.81,2.36c-.99,2.88-3.57,4.92-6.58,5.22l-20.4,2.01c-.52.05-1.03.08-1.55.08Zm-3.14-4.42c.16.03.32.07.48.1l.15.04c1.16.27,2.4.35,3.66.23l20.4-2.01c1.46-.14,2.71-1.14,3.19-2.53l.8-2.34c.13-.39.2-.81.2-1.22v-3.41l-.87-26.98s0,0,0,0c-.03-1.13-.2-2.3-.51-3.46l-.7-2.63c-.72.56-1.59.93-2.51,1.04l-15.38,1.93c-2.8.34-5.62-.1-8.15-1.29l-6.38-2.99c-.28.29-.56.59-.83.91l-1.4,1.64c-.62.73-1.36,1.31-2.21,1.74-.9.46-1.92.74-2.93.79l-27.5,1.35c-2.23.11-4.4.98-6.09,2.46l-2.72,2.38c-.2.4-.54.73-.97.92-.29.13-.61.19-.92.17-.32.02-.65-.04-.96-.19-.41-.19-.73-.51-.93-.9l-2.72-2.38c-1.69-1.47-3.86-2.35-6.09-2.46l-27.5-1.35c-1.02-.05-2.04-.32-2.94-.79-.84-.42-1.58-1.01-2.2-1.74l-1.4-1.64c-.27-.32-.55-.62-.83-.91l-6.38,2.99c-2.53,1.19-5.34,1.63-8.14,1.29l-15.4-1.93c-.92-.11-1.78-.48-2.5-1.04l-.7,2.63c-.3,1.16-.47,2.33-.51,3.46l-.87,27.05v3.34c0,.42.07.83.2,1.24l.8,2.33c.48,1.39,1.73,2.39,3.19,2.53l20.4,2.01c1.26.12,2.51.04,3.7-.23h.04c.19-.06.38-.1.56-.13l4.51-11.08c.15-.37.41-.69.74-.91l1.94-1.3c2.59-1.75,5.63-2.68,8.77-2.68h70.46c3.15,0,6.18.93,8.78,2.68l1.93,1.29c.33.22.59.54.74.91l4.51,11.08Z"/><path class="cls-1" d="m50.77,90.24l-7.6,3.57c-2.19,1.03-4.64,1.41-7.05,1.12l-15.39-1.93c-.95-.11-1.8-.68-2.29-1.52l-1.29-2.22,1.09-4.1c.43-1.63,1.13-3.16,2.03-4.53l21.98,5.21c3.18.74,6.1,2.26,8.52,4.41Z"/><path class="cls-3" d="m37.71,97.02c-.61,0-1.22-.04-1.84-.11l-15.4-1.93c-1.56-.19-2.97-1.12-3.77-2.5l-1.29-2.22c-.27-.46-.34-1-.2-1.52l1.09-4.1c.48-1.81,1.25-3.53,2.3-5.12.46-.7,1.31-1.04,2.13-.84l21.98,5.21c3.47.81,6.72,2.49,9.39,4.86.5.45.75,1.12.65,1.78-.1.67-.52,1.24-1.13,1.53l-7.6,3.57c-1.98.93-4.13,1.4-6.31,1.4Zm-18.42-8.05l.87,1.51c.17.29.47.49.8.53l15.4,1.93c2.05.25,4.11-.07,5.95-.94l4.57-2.14c-1.57-.95-3.29-1.66-5.09-2.08l-20.56-4.87c-.46.88-.82,1.8-1.07,2.76l-.88,3.31Z"/><path class="cls-1" d="m150.9,63.86H41.05l10.3-17.84c2.35-4.06,6.68-6.56,11.36-6.56h66.51c4.68,0,9.02,2.5,11.36,6.56l10.3,17.84Z"/><path class="cls-3" d="m150.9,65.86H41.05c-.71,0-1.37-.38-1.73-1-.36-.62-.36-1.38,0-2l10.3-17.84c2.69-4.67,7.71-7.56,13.1-7.56h66.51c5.38,0,10.4,2.9,13.1,7.56l10.3,17.84c.36.62.36,1.38,0,2-.36.62-1.02,1-1.73,1Zm-106.39-4h102.92l-8.57-14.84c-1.98-3.43-5.67-5.57-9.63-5.57H62.72c-3.96,0-7.65,2.13-9.63,5.56l-8.57,14.84Z"/><path class="cls-1" d="m176.94,134.63l-.97,10.15c-.68,3.11-3.43,5.32-6.62,5.32h-21.43c-1.22,0-2.21-.99-2.21-2.21v-7.94c.5.06,1,.14,1.5.26l.11.03c1.42.33,2.89.42,4.34.28l20.4-2.01c2.24-.22,4.15-1.74,4.89-3.87Z"/><path class="cls-3" d="m169.35,152.11h-21.43c-2.32,0-4.21-1.89-4.21-4.21v-7.94c0-.57.24-1.11.67-1.49.43-.38.99-.56,1.56-.49.58.07,1.16.17,1.72.3l.15.04c1.16.27,2.4.35,3.66.23l20.4-2.01c1.46-.14,2.71-1.14,3.19-2.53.33-.96,1.32-1.52,2.31-1.3.99.21,1.66,1.14,1.57,2.15l-.97,10.15c0,.08-.02.16-.04.23-.87,4-4.48,6.9-8.58,6.9Zm-21.64-9.75v5.53c0,.12.1.21.21.21h21.43c2.19,0,4.13-1.53,4.64-3.64l.43-4.51c-.68.28-1.41.47-2.17.54l-20.4,2.01c-1.4.14-2.8.09-4.15-.15Z"/><path class="cls-3" d="m153.49,69.21c-1.03,0-1.9-.79-1.99-1.83-.09-1.1.72-2.07,1.82-2.16l11.61-.98c1.1-.09,2.07.72,2.16,1.82.09,1.1-.72,2.07-1.82,2.16l-11.61.98c-.06,0-.11,0-.17,0Z"/><path class="cls-3" d="m155.66,71.39c-.99,0-1.85-.73-1.98-1.74-.14-1.1.63-2.1,1.73-2.24l5.95-.77c.11-.01.23-.05.35-.11l1.1-.57c.2-.11.36-.27.44-.48.06-.14.11-.36.05-.61l-.33-1.46c-.09-.38-.4-.67-.79-.74l-6.74-1.17c-.4-.07-.78.1-.99.44l-1.85,2.98c-.58.94-1.82,1.23-2.75.64-.94-.58-1.23-1.82-.64-2.75l1.85-2.98c1.07-1.73,3.07-2.62,5.08-2.27l6.74,1.17c1.98.35,3.54,1.84,3.99,3.78l.33,1.46c.23,1,.14,2.04-.25,3.01-.44,1.08-1.26,1.97-2.3,2.52l-1.13.59c-.53.26-1.07.43-1.63.51l-5.97.78c-.09.01-.17.02-.26.02Z"/><path class="cls-1" d="m174.8,89.25l-1.29,2.22c-.49.84-1.34,1.4-2.29,1.52l-15.39,1.93c-2.4.3-4.86-.09-7.05-1.12l-7.6-3.57c2.42-2.15,5.34-3.66,8.52-4.41l21.98-5.21c.91,1.37,1.6,2.9,2.03,4.53l1.09,4.1Z"/><path class="cls-3" d="m154.24,97.02c-2.18,0-4.33-.48-6.31-1.4l-7.6-3.57c-.61-.29-1.03-.86-1.13-1.53-.1-.67.15-1.34.65-1.78,2.67-2.37,5.92-4.05,9.39-4.86l21.98-5.21c.82-.19,1.67.14,2.13.84,1.05,1.59,1.82,3.31,2.3,5.13l1.09,4.1c.14.51.06,1.06-.2,1.52l-1.29,2.22c-.8,1.38-2.21,2.31-3.78,2.5l-15.38,1.93c-.61.08-1.23.11-1.84.11Zm-9.17-7.17l4.57,2.14c1.85.87,3.91,1.19,5.96.94l15.39-1.93c.34-.04.64-.24.81-.54l.87-1.51-.88-3.3c-.25-.96-.61-1.88-1.07-2.76l-20.55,4.87c-1.8.42-3.52,1.13-5.09,2.08Z"/></svg>