<?xml version="1.0" encoding="UTF-8"?><svg id="Security_Networking" xmlns="http://www.w3.org/2000/svg" viewBox="0 0 192 192"><defs><style>.cls-1{fill:#2cccd3;}.cls-1,.cls-2{stroke:#464646;stroke-linecap:round;stroke-linejoin:round;stroke-width:4px;}.cls-2{fill:none;}.cls-3{fill:#fff;}</style></defs><path class="cls-1" d="M123.78,28.89c-11.9-.94-23.58-4.65-33.81-10.7l-1.22-.73-1.22.73c-10.38,6.13-21.74,9.74-33.81,10.7l-2.21.17v45.06c0,8.1,3.02,16.38,8.09,22.15,5.09,5.78,11.08,9.61,22.01,15.06v-43.09c0-3.93,3.2-7.13,7.14-7.13,1.97,0,3.75.8,5.04,2.09,1.27,1.27,2.06,3.02,2.09,4.95v31.51c0-1.86.75-3.55,1.97-4.76,1.22-1.22,2.91-1.98,4.77-1.98s3.55.76,4.77,1.97,1.97,2.91,1.97,4.77v4.06s.09-.06.14-.09c.64-3.23,3.47-5.68,6.89-5.74.52-.52,1.01-1.06,1.5-1.62,5.06-5.76,8.09-14.04,8.09-22.15V29.06l-2.21-.17Z"/><path class="cls-3" d="M107.56,63.01c0,7.86-4.83,14.6-11.67,17.4v-12.26c-.03-1.92-.82-3.67-2.09-4.95-1.29-1.29-3.07-2.09-5.04-2.09-3.94,0-7.14,3.2-7.14,7.13v12.17c-6.85-2.8-11.67-9.53-11.67-17.4,0-10.38,8.42-18.8,18.8-18.8s18.8,8.43,18.8,18.8Z"/><line class="cls-2" x1="123.63" y1="124.26" x2="123.63" y2="110.01"/><line class="cls-2" x1="109.37" y1="120.17" x2="109.37" y2="103.72"/><line class="cls-2" x1="95.89" y1="115.3" x2="95.89" y2="99.66"/><path class="cls-2" d="M137.9,110.01v34.27c0,17.37-14.13,31.49-31.49,31.49h-.46c-6.93,0-13.48-2.2-18.99-6.36-5.32-4.02-9.29-9.75-11.2-16.12-.11-.4-.23-.8-.35-1.21-.3-1.04-.63-2.12-.96-3.16-2.24-7-7.91-25.6-7.91-25.6-.71-2.24-.51-4.6.56-6.68,1.25-2.43,3.52-4.11,6.27-4.6,1.46-.27,2.98-.15,4.39.35,1.48.53,2.88,1.41,3.86,2.54v-46.7c0-3.93,3.2-7.13,7.14-7.13,1.97,0,3.75.8,5.04,2.09,1.27,1.27,2.06,3.02,2.09,4.95v31.51c0-1.86.75-3.55,1.97-4.76,1.22-1.22,2.91-1.98,4.77-1.98s3.55.76,4.77,1.97,1.97,2.91,1.97,4.77v4.06s.09-.06.14-.09c.64-3.23,3.47-5.68,6.89-5.74h.11c1.97,0,3.75.79,5.04,2.09,1.3,1.29,2.09,3.07,2.09,5.04v4.99c0-3.94,3.2-7.14,7.14-7.14,1.96,0,3.75.8,5.04,2.09s2.09,3.08,2.09,5.05Z"/><line class="cls-2" x1="81.62" y1="130.11" x2="81.62" y2="114.94"/></svg>