<?xml version="1.0" encoding="UTF-8"?><svg id="Security_Networking" xmlns="http://www.w3.org/2000/svg" viewBox="0 0 192 192"><defs><style>.cls-1{fill:#2cccd3;}.cls-1,.cls-2{stroke:#464646;stroke-linecap:round;stroke-linejoin:round;stroke-width:4px;}.cls-2{fill:none;}</style></defs><circle class="cls-1" cx="96" cy="50.21" r="28.19"/><path class="cls-1" d="M48.42,125.98c0-26.28,21.3-47.58,47.58-47.58s47.58,21.3,47.58,47.58H48.42Z"/><line class="cls-2" x1="71.33" y1="125.98" x2="71.33" y2="106.59"/><line class="cls-2" x1="120.67" y1="125.98" x2="120.67" y2="106.59"/><rect class="cls-2" x="21.96" y="137.96" width="147.91" height="32.02"/><line class="cls-2" x1="42.63" y1="145.22" x2="42.63" y2="162.73"/><line class="cls-2" x1="51.39" y1="153.97" x2="33.87" y2="153.97"/><line class="cls-2" x1="48.82" y1="147.78" x2="36.44" y2="160.16"/><line class="cls-2" x1="48.82" y1="160.16" x2="36.44" y2="147.78"/><line class="cls-2" x1="69.37" y1="145.22" x2="69.37" y2="162.73"/><line class="cls-2" x1="78.12" y1="153.97" x2="60.61" y2="153.97"/><line class="cls-2" x1="75.56" y1="147.78" x2="63.18" y2="160.16"/><line class="cls-2" x1="75.56" y1="160.16" x2="63.18" y2="147.78"/><line class="cls-2" x1="96.11" y1="145.22" x2="96.11" y2="162.73"/><line class="cls-2" x1="104.86" y1="153.97" x2="87.35" y2="153.97"/><line class="cls-2" x1="102.3" y1="147.78" x2="89.92" y2="160.16"/><line class="cls-2" x1="102.3" y1="160.16" x2="89.92" y2="147.78"/><line class="cls-2" x1="122.85" y1="145.22" x2="122.85" y2="162.73"/><line class="cls-2" x1="131.6" y1="153.97" x2="114.09" y2="153.97"/><line class="cls-2" x1="129.04" y1="147.78" x2="116.66" y2="160.16"/><line class="cls-2" x1="129.04" y1="160.16" x2="116.66" y2="147.78"/><line class="cls-2" x1="149.59" y1="145.22" x2="149.59" y2="162.73"/><line class="cls-2" x1="158.34" y1="153.97" x2="140.83" y2="153.97"/><line class="cls-2" x1="155.78" y1="147.78" x2="143.39" y2="160.16"/><line class="cls-2" x1="155.78" y1="160.16" x2="143.39" y2="147.78"/></svg>