<?xml version="1.0" encoding="UTF-8"?><svg id="Security_Networking" xmlns="http://www.w3.org/2000/svg" viewBox="0 0 192 192"><defs><style>.cls-1{fill:#2cccd3;}.cls-1,.cls-2{stroke-linecap:round;stroke-linejoin:round;}.cls-1,.cls-2,.cls-3{stroke:#464646;stroke-width:4px;}.cls-2,.cls-3{fill:none;}.cls-3{stroke-miterlimit:10;}</style></defs><path class="cls-1" d="M180.88,84.85c.07.7.11,1.4.13,2.1.42,14.61-9.8,27.04-23.94,30.36-.13.03-.26.06-.4.09.02-.62.03-1.26.03-1.89v-.06c-.02-24.16-14.15-44.98-34.59-54.7-7.88-3.76-16.72-5.87-26.04-5.87-4.51,0-8.9.5-13.11,1.43-23,5.06-41.12,23.21-46.12,46.24-.91,4.15-1.4,8.47-1.4,12.9v.06c0,.62,0,1.23.03,1.85-10.45-2.39-18.85-9.59-22.69-19.97-2.11-5.5-2.3-11.33-.95-16.81,2.56-10.39,10.71-19.46,22-22.45,3.18-.62,6.69-.92,9.87-1.24,1.27,0,1.27-.6,1.59-1.22,4.48-9.82,11.82-15.95,22.35-18.4,3.83-.92,7.64-1.25,11.47-.62.97.29,1.59,0,1.92-.63,7.01-10.73,16.89-17.48,29.65-19.64,13.09-1.84,24.56,1.24,34.44,9.52,7.04,5.54,11.82,12.91,13.73,21.78.62,3.08.95,6.45.95,9.83.32.91.32,1.24,1.29,1.53,11.4,3.41,18.7,14.3,19.79,25.81Z"/><path class="cls-2" d="M156.7,115.45v.06c0,.63,0,1.27-.03,1.89-1,32.61-27.73,58.73-60.6,58.73-24.17,0-45.04-14.15-54.78-34.62-3.49-7.36-5.56-15.52-5.82-24.15-.02-.62-.03-1.23-.03-1.85v-.06c0-4.43.49-8.75,1.4-12.9,5-23.03,23.12-41.18,46.12-46.24,4.21-.93,8.6-1.43,13.11-1.43,9.32,0,18.16,2.11,26.04,5.87,20.44,9.72,34.57,30.54,34.59,54.7Z"/><path class="cls-1" d="M90.45,108.56h-28.24c2.3-7.44,7.76-12.67,14.12-12.67s11.82,5.23,14.12,12.67Z"/><path class="cls-1" d="M94.79,118.13c0,13.73-8.27,24.85-18.46,24.85s-18.46-11.13-18.46-24.85c0-3.39.5-6.62,1.42-9.56h34.09c.92,2.95,1.42,6.18,1.42,9.56Z"/><line class="cls-3" x1="76.33" y1="108.56" x2="76.33" y2="142.98"/><polyline class="cls-2" points="93.37 108.56 101.9 103.86 101.9 95.9"/><polyline class="cls-2" points="59.29 108.56 50.77 103.86 50.77 95.9"/><polyline class="cls-2" points="93.37 128.05 101.9 132.75 101.9 140.72"/><polyline class="cls-2" points="59.29 128.05 50.77 132.75 50.77 140.72"/><path class="cls-2" d="M80.57,96.7c0-6.26,5.07-11.33,11.33-11.33"/><path class="cls-2" d="M72.07,96.7c0-6.26-5.07-11.33-11.33-11.33"/><path class="cls-2" d="M128.96,107.97c0,6.18-2.5,11.79-6.55,15.84-4.06,4.08-9.69,6.6-15.9,6.6-12.4,0-22.44-10.05-22.44-22.44s10.05-22.44,22.44-22.44,22.44,10.05,22.44,22.44Z"/><line class="cls-2" x1="141.23" y1="142.82" x2="122.41" y2="123.82"/><polyline class="cls-2" points="57.95 115.8 50.77 115.8 50.77 124.32"/><polyline class="cls-2" points="94.71 115.8 101.9 115.8 101.9 124.32"/></svg>