<?xml version="1.0" encoding="UTF-8"?><svg id="Security_Networking" xmlns="http://www.w3.org/2000/svg" viewBox="0 0 192 192"><defs><style>.cls-1{stroke:#464646;}.cls-1,.cls-2,.cls-3{stroke-linecap:round;stroke-linejoin:round;stroke-width:4px;}.cls-1,.cls-3{fill:none;}.cls-2{fill:#00cfd4;}.cls-2,.cls-3{stroke:#464646;}</style></defs><path class="cls-1" d="M78.19,73.81v-10.65c0-8.42,6.83-15.25,15.25-15.25s15.25,6.83,15.25,15.25v10.49"/><path class="cls-2" d="M113.57,73.66h-40.25c-3.78,0-6.85,3.07-6.85,6.85v40.25c0,3.78,3.07,6.85,6.85,6.85h40.25c3.78,0,6.85-3.07,6.85-6.85v-40.25c0-3.78-3.07-6.85-6.85-6.85Z"/><path class="cls-3" d="M93.44,178.07l-1.75-.84c-25.15-12.09-37.28-18.97-47.33-30.39-8.54-9.7-13.63-23.65-13.63-37.3V33.66l3.72-.29c20.31-1.62,39.46-7.69,56.92-18.02l2.06-1.22,2.06,1.22c17.21,10.19,36.89,16.43,56.92,18.02l3.72.29v75.88c0,13.65-5.1,27.61-13.63,37.3-10.05,11.42-22.18,18.3-47.32,30.39l-1.75.84Z"/></svg>