<?xml version="1.0" encoding="UTF-8"?><svg id="Security_Networking" xmlns="http://www.w3.org/2000/svg" viewBox="0 0 192 192"><defs><style>.cls-1{fill:#2cccd3;}.cls-1,.cls-2{stroke:#464646;stroke-linecap:round;stroke-linejoin:round;stroke-width:4px;}.cls-2{fill:none;}</style></defs><polygon class="cls-2" points="155.86 130.6 155.86 61.48 96 26.92 36.14 61.48 36.14 130.6 96 165.15 155.86 130.6 155.86 130.6"/><circle class="cls-1" cx="96" cy="165.15" r="12.8"/><circle class="cls-1" cx="36.14" cy="130.49" r="12.8"/><circle class="cls-1" cx="36.14" cy="61.63" r="12.8"/><circle class="cls-1" cx="96" cy="26.92" r="12.8"/><circle class="cls-1" cx="155.86" cy="61.58" r="12.8"/><line class="cls-1" x1="145.08" y1="68.47" x2="46.71" y2="123.26"/><circle class="cls-1" cx="115.95" cy="85.22" r="12.8"/><line class="cls-1" x1="96" y1="152.35" x2="115.95" y2="98.02"/><line class="cls-1" x1="125.49" y1="93.74" x2="155.86" y2="130.6"/><line class="cls-1" x1="41.71" y1="118.97" x2="96" y2="39.72"/><line class="cls-1" x1="48.94" y1="61.63" x2="143.06" y2="61.58"/><circle class="cls-1" cx="65.33" cy="85.22" r="12.8"/><circle class="cls-1" cx="155.86" cy="130.49" r="12.8"/></svg>