<?xml version="1.0" encoding="utf-8"?>
<!-- Generator: Adobe Illustrator 27.2.0, SVG Export Plug-In . SVG Version: 6.00 Build 0)  -->
<svg version="1.1" id="Security_Networking" xmlns="http://www.w3.org/2000/svg" xmlns:xlink="http://www.w3.org/1999/xlink"
	 x="0px" y="0px" viewBox="0 0 192 192" style="enable-background:new 0 0 192 192;" xml:space="preserve">
<style type="text/css">
	.st0{fill:#2CCCD3;}
	.st1{fill:#464646;}
	.st2{fill:#23A3B2;}
	.st3{fill:#1A7A8C;}
</style>
<path class="st0" d="M181,94.8v5.8c-0.3,2.4-1,4.9-1.6,7.1c-3.8,10.1-12.1,17.2-22.5,19.6c-2.6,0.6-5.3,0.9-8.1,0.9h-0.2
	c0.4-2.2,0.6-4.5,0.6-6.8c0-0.5,0-1.1,0-1.7v-0.1c0-21.3-12.5-39.6-30.5-48.2c-6.9-3.3-14.7-5.2-22.9-5.2c-4,0-7.8,0.4-11.6,1.3
	C64.1,72.1,48.2,88,43.8,108.3c-0.8,3.7-1.2,7.5-1.2,11.4v0.1c0,0.6,0,1.1,0,1.6c0.1,2.3,0.3,4.6,0.7,6.9c-2.7,0-5.3-0.3-7.8-0.9
	c-10.5-2.4-19-9.6-22.8-20c-2.1-5.5-2.3-11.3-0.9-16.8c2.6-10.4,10.7-19.5,22-22.4c3.2-0.6,6.7-0.9,9.9-1.2c1.3,0,1.3-0.6,1.6-1.2
	c4.5-9.8,11.8-16,22.4-18.4c3.8-0.9,7.6-1.2,11.5-0.6c1,0.3,1.6,0,1.9-0.6c7-10.7,16.9-17.5,29.7-19.6c13.1-1.8,24.6,1.2,34.4,9.5
	c7,5.5,11.8,12.9,13.7,21.8c0.6,3.1,0.9,6.5,0.9,9.8c0.3,0.9,0.3,1.2,1.3,1.5c10.2,4.4,16.8,11.4,19.4,21.5c0.1,0.6,0.3,1.2,0.4,1.8
	C180.7,93.3,181,93.9,181,94.8z"/>
<path class="st1" d="M148.8,130.2h-0.2c-0.6,0-1.1-0.3-1.5-0.7c-0.4-0.4-0.6-1-0.4-1.6c0.4-2.2,0.6-4.4,0.6-6.6c0-0.5,0-1.1,0-1.6
	c0-19.8-11.5-38-29.3-46.4c-6.9-3.3-14.4-5-22.1-5c-3.7,0-7.5,0.4-11.1,1.2c-19.5,4.3-34.9,19.7-39.1,39.2
	c-0.8,3.6-1.2,7.3-1.2,10.9c0,0.6,0,1.1,0,1.6c0.1,2.2,0.3,4.4,0.6,6.6c0.1,0.6-0.1,1.2-0.5,1.6c-0.4,0.4-0.9,0.7-1.5,0.7
	c-2.8,0-5.6-0.3-8.2-0.9C23.7,126.7,14.8,119,10.8,108c-2.2-5.7-2.5-11.9-1-18c2.9-11.7,11.9-20.8,23.4-23.9c0,0,0.1,0,0.1,0
	c2.9-0.6,5.9-0.9,8.8-1.1l1.2-0.1c0-0.1,0-0.1,0.1-0.2c4.7-10.3,12.7-16.9,23.7-19.4c4.4-1.1,8.4-1.3,12.2-0.6c0,0,0.1,0,0.1,0
	c7.4-11.2,17.8-18.1,30.8-20.3c13.8-1.9,25.9,1.4,36.1,10c7.4,5.9,12.4,13.8,14.4,22.9c0.6,3.1,1,6.5,1,9.9c0,0,0.1,0,0.1,0
	c10.9,4.7,17.8,12.4,20.5,22.9c0.1,0.5,0.2,1,0.3,1.5l0.1,0.3c0,0.1,0.1,0.3,0.1,0.4c0,0.2,0.1,0.5,0.1,0.8c0.1,0.4,0.2,1,0.2,1.6
	v5.8c0,0.1,0,0.2,0,0.3c-0.3,2.6-1,5.2-1.6,7.4c0,0.1,0,0.1-0.1,0.2c-4,10.6-12.8,18.2-23.9,20.8
	C154.7,129.9,151.8,130.2,148.8,130.2L148.8,130.2z M95.9,64.3c8.3,0,16.3,1.8,23.8,5.4c19.2,9.1,31.6,28.7,31.6,50
	c0,0.6,0,1.2,0,1.8c-0.1,1.6-0.2,3.1-0.3,4.7c1.9-0.1,3.7-0.4,5.5-0.8c9.8-2.3,17.5-9,21.1-18.3c0.6-2,1.2-4.3,1.5-6.6v-5.7
	c0-0.2-0.1-0.5-0.1-0.8c-0.1-0.4-0.2-0.8-0.2-1.4l0-0.2c-0.1-0.5-0.2-0.9-0.3-1.4c-2.4-9.3-8.3-15.9-18.1-20.1
	c-1.6-0.5-2.1-1.5-2.4-2.5l-0.1-0.3c-0.1-0.2-0.1-0.4-0.1-0.7c0-3.2-0.3-6.5-0.9-9.4c-1.8-8.3-6.2-15.2-13-20.6
	c-9.5-7.9-20.2-10.9-32.9-9.1c-11.9,2-21.4,8.3-28.2,18.7c-0.8,1.4-2.3,2-4.1,1.6c-3.2-0.5-6.7-0.3-10.6,0.6
	c-9.9,2.3-16.7,8-21,17.3c-0.1,0.2-0.1,0.2-0.1,0.3c-0.2,0.6-0.9,2.1-3.2,2.1L42.5,69c-2.8,0.3-5.7,0.6-8.4,1.1
	c-10.1,2.7-18,10.7-20.5,21c-1.3,5.3-1,10.7,0.9,15.6c3.6,9.7,11.4,16.5,21.4,18.8c1.6,0.4,3.3,0.6,5,0.7c-0.2-1.6-0.3-3.1-0.3-4.7
	c0-0.6,0-1.1,0-1.7c0-4,0.4-8,1.3-11.8c4.6-21,21.1-37.6,42.1-42.3C87.9,64.8,91.9,64.3,95.9,64.3L95.9,64.3z M181,100.6L181,100.6
	L181,100.6z"/>
<path class="st1" d="M95.9,175.1c-21.3,0-40.9-12.4-50.1-31.6c-2.3-4.8-3.8-9.8-4.6-14.9c-0.4-2.3-0.6-4.7-0.7-7.1
	c0-0.6,0-1.1,0-1.7c0-4,0.4-8,1.3-11.8c4.6-21,21.1-37.6,42.1-42.3c3.9-0.9,7.9-1.3,12-1.3c8.3,0,16.3,1.8,23.8,5.4
	c19.2,9.1,31.6,28.7,31.6,50l0,0v0.1c0,0.6,0,1.2,0,1.7c-0.1,2.4-0.3,4.7-0.7,7.1C146.3,155.5,123.3,175.1,95.9,175.1L95.9,175.1z
	 M95.9,68.3c-3.7,0-7.5,0.4-11.1,1.2c-19.5,4.3-34.9,19.7-39.1,39.2c-0.8,3.6-1.2,7.3-1.2,10.9c0,0.6,0,1.1,0,1.6
	c0.1,2.2,0.3,4.4,0.6,6.6c0.8,4.8,2.2,9.4,4.3,13.9c8.5,17.8,26.7,29.3,46.4,29.3c25.4,0,46.8-18.2,50.8-43.2
	c0.4-2.2,0.6-4.4,0.6-6.6c0-0.5,0-1.1,0-1.6l2-0.1h-2c0-19.7-11.5-37.9-29.3-46.4C111.1,70,103.7,68.3,95.9,68.3L95.9,68.3z"/>
<path class="st2" d="M95.9,163.4c0,0-33.7-7.4-33.7-40.3V89.4l13.4,12.9V123c0,19.6,20.3,26.3,20.3,26.3L95.9,163.4L95.9,163.4z"/>
<path class="st3" d="M95.9,163.4c0,0,33.7-7.4,33.7-40.4V89.4l-13.4,12.9V123c0,19.6-20.3,26.3-20.3,26.3L95.9,163.4L95.9,163.4z"/>
<polygon class="st0" points="116.3,102.3 75.6,102.3 62.2,89.4 129.7,89.4 "/>
</svg>
