<?xml version="1.0" encoding="UTF-8"?><svg id="Security_Networking" xmlns="http://www.w3.org/2000/svg" viewBox="0 0 192 192"><defs><style>.cls-1{fill:#c8c8c8;}.cls-2{fill:#464646;}</style></defs><path class="cls-2" d="m132.17,180.07H59.83c-6.33,0-11.49-5.15-11.49-11.48V23.45c0-6.33,5.15-11.48,11.49-11.48h72.34c6.33,0,11.49,5.15,11.49,11.48v145.14c0,6.33-5.15,11.48-11.49,11.48ZM59.83,15.96c-4.13,0-7.49,3.36-7.49,7.48v145.14c0,4.13,3.36,7.48,7.49,7.48h72.34c4.13,0,7.49-3.36,7.49-7.48V23.45c0-4.13-3.36-7.48-7.49-7.48H59.83Z"/><path class="cls-2" d="m102.67,28.5h-23.16c-1.1,0-2-.9-2-2s.9-2,2-2h23.16c1.1,0,2,.9,2,2s-.9,2-2,2Z"/><path class="cls-2" d="m112.49,28.5c-.53,0-1.04-.21-1.41-.59-.09-.09-.18-.2-.25-.3-.07-.11-.13-.22-.18-.35-.05-.12-.09-.25-.11-.37-.02-.13-.04-.26-.04-.39s.01-.26.04-.39c.03-.13.06-.25.11-.37.05-.12.11-.24.18-.35.07-.11.16-.21.25-.3.74-.74,2.08-.74,2.83,0,.37.37.59.89.59,1.41s-.21,1.04-.59,1.41c-.37.37-.89.59-1.41.59Z"/><path class="cls-2" d="m65.84,86.29c-1.1,0-2-.9-2-2v-18.43c0-1.1.9-2,2-2h18.58c1.1,0,2,.9,2,2s-.9,2-2,2h-16.58v16.43c0,1.1-.9,2-2,2Z"/><path class="cls-2" d="m84.42,128.18h-18.58c-1.1,0-2-.9-2-2v-18.79c0-1.1.9-2,2-2s2,.9,2,2v16.79h16.58c1.1,0,2,.9,2,2s-.9,2-2,2Z"/><path class="cls-2" d="m126.16,128.18h-18.58c-1.1,0-2-.9-2-2s.9-2,2-2h16.58v-16.79c0-1.1.9-2,2-2s2,.9,2,2v18.79c0,1.1-.9,2-2,2Z"/><path class="cls-2" d="m126.16,86.29c-1.1,0-2-.9-2-2v-16.43h-16.51c-1.1,0-2-.9-2-2s.9-2,2-2h18.51c1.1,0,2,.9,2,2v18.43c0,1.1-.9,2-2,2Z"/><rect class="cls-1" x="77.99" y="78.43" width="11.93" height="11.93"/><path class="cls-2" d="m89.92,92.36h-11.93c-1.1,0-2-.9-2-2v-11.93c0-1.1.9-2,2-2h11.93c1.1,0,2,.9,2,2v11.93c0,1.1-.9,2-2,2Zm-9.93-4h7.93v-7.93h-7.93v7.93Z"/><rect class="cls-1" x="102.08" y="78.43" width="11.93" height="11.93"/><path class="cls-2" d="m114.01,92.36h-11.93c-1.1,0-2-.9-2-2v-11.93c0-1.1.9-2,2-2h11.93c1.1,0,2,.9,2,2v11.93c0,1.1-.9,2-2,2Zm-9.93-4h7.93v-7.93h-7.93v7.93Z"/><rect class="cls-1" x="77.99" y="101.68" width="11.93" height="11.93"/><path class="cls-2" d="m89.92,115.61h-11.93c-1.1,0-2-.9-2-2v-11.93c0-1.1.9-2,2-2h11.93c1.1,0,2,.9,2,2v11.93c0,1.1-.9,2-2,2Zm-9.93-4h7.93v-7.93h-7.93v7.93Z"/><rect class="cls-2" x="99.42" y="99.23" width="5.98" height="5.98" rx=".84" ry=".84"/><rect class="cls-2" x="99.42" y="110.07" width="5.98" height="5.98" rx=".84" ry=".84"/><rect class="cls-2" x="110.67" y="110.07" width="5.98" height="5.98" rx=".84" ry=".84"/><rect class="cls-2" x="110.67" y="99.23" width="5.98" height="5.98" rx=".84" ry=".84"/><rect class="cls-2" x="105.05" y="104.65" width="5.98" height="5.98" rx=".84" ry=".84"/></svg>