<?xml version="1.0" encoding="UTF-8"?><svg id="Security_Networking" xmlns="http://www.w3.org/2000/svg" viewBox="0 0 192 192"><defs><style>.cls-1{fill:#c8c8c8;}.cls-2{fill:#464646;}</style></defs><path class="cls-1" d="m173.72,62.38v59.7c0,2.66-2.16,4.82-4.82,4.82h-36.52v-12.95H59.46v12.95H23.1c-2.66,0-4.82-2.16-4.82-4.82v-59.7c0-2.66,2.16-4.82,4.82-4.82h145.79c2.66,0,4.82,2.16,4.82,4.82Z"/><path class="cls-2" d="m168.9,128.9h-36.52c-1.1,0-2-.9-2-2v-10.95H61.46v10.95c0,1.1-.9,2-2,2H23.1c-3.76,0-6.82-3.06-6.82-6.82v-59.7c0-3.76,3.06-6.82,6.82-6.82h145.79c3.76,0,6.82,3.06,6.82,6.82v59.7c0,3.76-3.06,6.82-6.82,6.82Zm-34.52-4h34.52c1.56,0,2.82-1.27,2.82-2.82v-59.7c0-1.56-1.27-2.82-2.82-2.82H23.1c-1.56,0-2.82,1.27-2.82,2.82v59.7c0,1.56,1.27,2.82,2.82,2.82h34.36v-10.95c0-1.1.9-2,2-2h72.92c1.1,0,2,.9,2,2v10.95Z"/><path class="cls-2" d="m141.92,59.55H50.08c-1.1,0-2-.9-2-2V18.79c0-3.76,3.06-6.82,6.82-6.82h82.2c3.76,0,6.82,3.06,6.82,6.82v38.77c0,1.1-.9,2-2,2Zm-89.85-4h87.85V18.79c0-1.56-1.27-2.82-2.82-2.82H54.9c-1.56,0-2.82,1.27-2.82,2.82v36.77Z"/><path class="cls-2" d="m127.55,180.07h-63.27c-3.76,0-6.82-3.06-6.82-6.82v-59.3c0-1.1.9-2,2-2h72.92c1.1,0,2,.9,2,2v59.3c0,3.76-3.06,6.82-6.82,6.82ZM61.46,115.95v57.3c0,1.56,1.27,2.82,2.82,2.82h63.27c1.56,0,2.82-1.27,2.82-2.82v-57.3H61.46Z"/><path class="cls-2" d="m139.32,115.95H52.6c-1.1,0-2-.9-2-2s.9-2,2-2h86.71c1.1,0,2,.9,2,2s-.9,2-2,2Z"/><rect class="cls-2" x="18.28" y="84.41" width="155.44" height="4"/><path class="cls-2" d="m119.17,128.79h-46.3c-1.1,0-2-.9-2-2s.9-2,2-2h46.3c1.1,0,2,.9,2,2s-.9,2-2,2Z"/><path class="cls-2" d="m119.17,144.23h-46.3c-1.1,0-2-.9-2-2s.9-2,2-2h46.3c1.1,0,2,.9,2,2s-.9,2-2,2Z"/><path class="cls-2" d="m119.07,159.67h-46.3c-1.1,0-2-.9-2-2s.9-2,2-2h46.3c1.1,0,2,.9,2,2s-.9,2-2,2Z"/><path class="cls-2" d="m158.26,77.08c2.32,0,4.21-1.88,4.21-4.21s-1.88-4.21-4.21-4.21-4.21,1.88-4.21,4.21,1.88,4.21,4.21,4.21Z"/><path class="cls-2" d="m140.37,77.08c2.32,0,4.21-1.88,4.21-4.21s-1.88-4.21-4.21-4.21-4.21,1.88-4.21,4.21,1.88,4.21,4.21,4.21Z"/><path class="cls-2" d="m120.38,77.08c2.32,0,4.21-1.88,4.21-4.21s-1.88-4.21-4.21-4.21-4.21,1.88-4.21,4.21,1.88,4.21,4.21,4.21Z"/></svg>